<?xml version="1.0" encoding="UTF-8" standalone="no"?>
<!DOCTYPE svg PUBLIC "-//W3C//DTD SVG 1.1//EN"
 "http://www.w3.org/Graphics/SVG/1.1/DTD/svg11.dtd">
<!-- Generated by graphviz version 13.1.2 (20250808.2320)
 -->
<!-- Title: RTS Pages: 1 -->
<svg width="769pt" height="306pt"
 viewBox="0.00 0.00 769.00 306.00" xmlns="http://www.w3.org/2000/svg" xmlns:xlink="http://www.w3.org/1999/xlink">
<g id="graph0" class="graph" transform="scale(1 1) rotate(0) translate(4 301.5)">
<title>RTS</title>
<polygon fill="white" stroke="none" points="-4,4 -4,-301.5 765.25,-301.5 765.25,4 -4,4"/>
<text xml:space="preserve" text-anchor="middle" x="380.62" y="-278.3" font-family="Times,serif" font-size="16.00">RTS generated by BFS function starting from the green region</text>
<text xml:space="preserve" text-anchor="middle" x="380.62" y="-259.55" font-family="Times,serif" font-size="16.00">going Backward, example switch on/off</text>
<!-- Info -->
<g id="node1" class="node">
<title>Info</title>
<text xml:space="preserve" text-anchor="middle" x="100.25" y="-215.7" font-family="Times,serif" font-size="14.00">Initial region: off</text>
<text xml:space="preserve" text-anchor="middle" x="100.25" y="-199.2" font-family="Times,serif" font-size="14.00">FloorValues: x=2 </text>
<text xml:space="preserve" text-anchor="middle" x="100.25" y="-182.7" font-family="Times,serif" font-size="14.00">Zero fraction clocks: x </text>
<text xml:space="preserve" text-anchor="middle" x="100.25" y="-166.2" font-family="Times,serif" font-size="14.00">Fractional order:</text>
<text xml:space="preserve" text-anchor="middle" x="100.25" y="-133.7" font-family="Times,serif" font-size="14.00">Transitions:</text>
<text xml:space="preserve" text-anchor="middle" x="100.25" y="-117.2" font-family="Times,serif" font-size="14.00">off &#45;&#45;[switch_on, reset {x}]&#45;&#45;&gt; on</text>
<text xml:space="preserve" text-anchor="middle" x="100.25" y="-100.7" font-family="Times,serif" font-size="14.00">on &#45;&#45;[switch_off]&#45;&#45;&gt; off</text>
</g>
<!-- R0 -->
<g id="node2" class="node">
<title>R0</title>
<polygon fill="lightgreen" stroke="black" points="632.25,-186.38 578.25,-186.38 578.25,-140.12 632.25,-140.12 632.25,-186.38"/>
<text xml:space="preserve" text-anchor="middle" x="605.25" y="-170.97" font-family="Helvetica,sans-Serif" font-size="12.00">R0</text>
<text xml:space="preserve" text-anchor="middle" x="605.25" y="-158.22" font-family="Helvetica,sans-Serif" font-size="12.00">off</text>
<text xml:space="preserve" text-anchor="middle" x="605.25" y="-145.47" font-family="Helvetica,sans-Serif" font-size="12.00">x=2</text>
</g>
<!-- R9 -->
<g id="node11" class="node">
<title>R9</title>
<polygon fill="lightblue" stroke="black" points="401.25,-46.25 347.25,-46.25 347.25,0 401.25,0 401.25,-46.25"/>
<text xml:space="preserve" text-anchor="middle" x="374.25" y="-30.85" font-family="Helvetica,sans-Serif" font-size="12.00">R9</text>
<text xml:space="preserve" text-anchor="middle" x="374.25" y="-18.1" font-family="Helvetica,sans-Serif" font-size="12.00">on</text>
<text xml:space="preserve" text-anchor="middle" x="374.25" y="-5.35" font-family="Helvetica,sans-Serif" font-size="12.00">x=0</text>
</g>
<!-- R0&#45;&gt;R9 -->
<g id="edge14" class="edge">
<title>R0&#45;&gt;R9</title>
<path fill="none" stroke="black" d="M591.14,-139.91C581.23,-125.44 566.98,-106.87 551.25,-93.5 506.64,-55.57 483.83,-64.69 428.25,-46.25 422.37,-44.3 416.22,-42.02 410.26,-39.68"/>
<polygon fill="black" stroke="black" points="411.6,-37.2 403.13,-36.8 409.5,-42.39 411.6,-37.2"/>
<text xml:space="preserve" text-anchor="middle" x="545.77" y="-66" font-family="Times,serif" font-size="10.00">switch_on</text>
</g>
<!-- R1 -->
<g id="node3" class="node">
<title>R1</title>
<polygon fill="lightblue" stroke="black" points="542.25,-186.38 488.25,-186.38 488.25,-140.12 542.25,-140.12 542.25,-186.38"/>
<text xml:space="preserve" text-anchor="middle" x="515.25" y="-170.97" font-family="Helvetica,sans-Serif" font-size="12.00">R1</text>
<text xml:space="preserve" text-anchor="middle" x="515.25" y="-158.22" font-family="Helvetica,sans-Serif" font-size="12.00">off</text>
<text xml:space="preserve" text-anchor="middle" x="515.25" y="-145.47" font-family="Helvetica,sans-Serif" font-size="12.00">1&lt;x&lt;2</text>
</g>
<!-- R1&#45;&gt;R0 -->
<g id="edge1" class="edge">
<title>R1&#45;&gt;R0</title>
<path fill="none" stroke="black" d="M542.74,-163.25C550.85,-163.25 559.87,-163.25 568.46,-163.25"/>
<polygon fill="black" stroke="black" points="568.41,-166.05 576.41,-163.25 568.41,-160.45 568.41,-166.05"/>
<text xml:space="preserve" text-anchor="middle" x="560.25" y="-168" font-family="Times,serif" font-size="10.00">τ</text>
</g>
<!-- R1&#45;&gt;R9 -->
<g id="edge13" class="edge">
<title>R1&#45;&gt;R9</title>
<path fill="none" stroke="black" d="M502.31,-140.01C489.15,-118.73 467.19,-86.65 442.25,-64.25 432.66,-55.64 420.94,-47.94 409.95,-41.64"/>
<polygon fill="black" stroke="black" points="411.42,-39.25 403.06,-37.84 408.71,-44.16 411.42,-39.25"/>
<text xml:space="preserve" text-anchor="middle" x="473.16" y="-66" font-family="Times,serif" font-size="10.00">switch_on</text>
</g>
<!-- R2 -->
<g id="node4" class="node">
<title>R2</title>
<polygon fill="lightblue" stroke="black" points="761.25,-46.25 707.25,-46.25 707.25,0 761.25,0 761.25,-46.25"/>
<text xml:space="preserve" text-anchor="middle" x="734.25" y="-30.85" font-family="Helvetica,sans-Serif" font-size="12.00">R2</text>
<text xml:space="preserve" text-anchor="middle" x="734.25" y="-18.1" font-family="Helvetica,sans-Serif" font-size="12.00">on</text>
<text xml:space="preserve" text-anchor="middle" x="734.25" y="-5.35" font-family="Helvetica,sans-Serif" font-size="12.00">x=2</text>
</g>
<!-- R2&#45;&gt;R0 -->
<g id="edge2" class="edge">
<title>R2&#45;&gt;R0</title>
<path fill="none" stroke="black" d="M713.25,-46.61C691.23,-70.19 656.55,-107.32 632.45,-133.12"/>
<polygon fill="black" stroke="black" points="630.71,-130.89 627.3,-138.64 634.8,-134.71 630.71,-130.89"/>
<text xml:space="preserve" text-anchor="middle" x="717.88" y="-66" font-family="Times,serif" font-size="10.00">switch_off</text>
</g>
<!-- R3 -->
<g id="node5" class="node">
<title>R3</title>
<polygon fill="lightblue" stroke="black" points="452.25,-186.38 398.25,-186.38 398.25,-140.12 452.25,-140.12 452.25,-186.38"/>
<text xml:space="preserve" text-anchor="middle" x="425.25" y="-170.97" font-family="Helvetica,sans-Serif" font-size="12.00">R3</text>
<text xml:space="preserve" text-anchor="middle" x="425.25" y="-158.22" font-family="Helvetica,sans-Serif" font-size="12.00">off</text>
<text xml:space="preserve" text-anchor="middle" x="425.25" y="-145.47" font-family="Helvetica,sans-Serif" font-size="12.00">x=1</text>
</g>
<!-- R3&#45;&gt;R1 -->
<g id="edge3" class="edge">
<title>R3&#45;&gt;R1</title>
<path fill="none" stroke="black" d="M452.74,-163.25C460.85,-163.25 469.87,-163.25 478.46,-163.25"/>
<polygon fill="black" stroke="black" points="478.41,-166.05 486.41,-163.25 478.41,-160.45 478.41,-166.05"/>
<text xml:space="preserve" text-anchor="middle" x="470.25" y="-168" font-family="Times,serif" font-size="10.00">τ</text>
</g>
<!-- R3&#45;&gt;R9 -->
<g id="edge12" class="edge">
<title>R3&#45;&gt;R9</title>
<path fill="none" stroke="black" d="M417.97,-139.91C411.36,-119.95 401.15,-89.97 391.25,-64.25 390.1,-61.26 388.87,-58.17 387.61,-55.09"/>
<polygon fill="black" stroke="black" points="390.28,-54.22 384.63,-47.91 385.11,-56.37 390.28,-54.22"/>
<text xml:space="preserve" text-anchor="middle" x="416.61" y="-66" font-family="Times,serif" font-size="10.00">switch_on</text>
</g>
<!-- R4 -->
<g id="node6" class="node">
<title>R4</title>
<polygon fill="lightblue" stroke="black" points="671.25,-46.25 617.25,-46.25 617.25,0 671.25,0 671.25,-46.25"/>
<text xml:space="preserve" text-anchor="middle" x="644.25" y="-30.85" font-family="Helvetica,sans-Serif" font-size="12.00">R4</text>
<text xml:space="preserve" text-anchor="middle" x="644.25" y="-18.1" font-family="Helvetica,sans-Serif" font-size="12.00">on</text>
<text xml:space="preserve" text-anchor="middle" x="644.25" y="-5.35" font-family="Helvetica,sans-Serif" font-size="12.00">1&lt;x&lt;2</text>
</g>
<!-- R4&#45;&gt;R2 -->
<g id="edge4" class="edge">
<title>R4&#45;&gt;R2</title>
<path fill="none" stroke="black" d="M671.74,-23.12C679.85,-23.12 688.87,-23.12 697.46,-23.12"/>
<polygon fill="black" stroke="black" points="697.41,-25.93 705.41,-23.13 697.41,-20.33 697.41,-25.93"/>
<text xml:space="preserve" text-anchor="middle" x="689.25" y="-27.88" font-family="Times,serif" font-size="10.00">τ</text>
</g>
<!-- R5 -->
<g id="node7" class="node">
<title>R5</title>
<polygon fill="lightblue" stroke="black" points="362.25,-186.38 308.25,-186.38 308.25,-140.12 362.25,-140.12 362.25,-186.38"/>
<text xml:space="preserve" text-anchor="middle" x="335.25" y="-170.97" font-family="Helvetica,sans-Serif" font-size="12.00">R5</text>
<text xml:space="preserve" text-anchor="middle" x="335.25" y="-158.22" font-family="Helvetica,sans-Serif" font-size="12.00">off</text>
<text xml:space="preserve" text-anchor="middle" x="335.25" y="-145.47" font-family="Helvetica,sans-Serif" font-size="12.00">0&lt;x&lt;1</text>
</g>
<!-- R5&#45;&gt;R3 -->
<g id="edge5" class="edge">
<title>R5&#45;&gt;R3</title>
<path fill="none" stroke="black" d="M362.74,-163.25C370.85,-163.25 379.87,-163.25 388.46,-163.25"/>
<polygon fill="black" stroke="black" points="388.41,-166.05 396.41,-163.25 388.41,-160.45 388.41,-166.05"/>
<text xml:space="preserve" text-anchor="middle" x="380.25" y="-168" font-family="Times,serif" font-size="10.00">τ</text>
</g>
<!-- R5&#45;&gt;R9 -->
<g id="edge11" class="edge">
<title>R5&#45;&gt;R9</title>
<path fill="none" stroke="black" d="M335.54,-139.79C336.43,-119.49 339.37,-89.06 348.5,-64.25 349.68,-61.03 351.16,-57.8 352.8,-54.65"/>
<polygon fill="black" stroke="black" points="355.14,-56.2 356.69,-47.87 350.28,-53.41 355.14,-56.2"/>
<text xml:space="preserve" text-anchor="middle" x="369.88" y="-66" font-family="Times,serif" font-size="10.00">switch_on</text>
</g>
<!-- R6 -->
<g id="node8" class="node">
<title>R6</title>
<polygon fill="lightblue" stroke="black" points="581.25,-46.25 527.25,-46.25 527.25,0 581.25,0 581.25,-46.25"/>
<text xml:space="preserve" text-anchor="middle" x="554.25" y="-30.85" font-family="Helvetica,sans-Serif" font-size="12.00">R6</text>
<text xml:space="preserve" text-anchor="middle" x="554.25" y="-18.1" font-family="Helvetica,sans-Serif" font-size="12.00">on</text>
<text xml:space="preserve" text-anchor="middle" x="554.25" y="-5.35" font-family="Helvetica,sans-Serif" font-size="12.00">x=1</text>
</g>
<!-- R6&#45;&gt;R4 -->
<g id="edge6" class="edge">
<title>R6&#45;&gt;R4</title>
<path fill="none" stroke="black" d="M581.74,-23.12C589.85,-23.12 598.87,-23.12 607.46,-23.12"/>
<polygon fill="black" stroke="black" points="607.41,-25.93 615.41,-23.13 607.41,-20.33 607.41,-25.93"/>
<text xml:space="preserve" text-anchor="middle" x="599.25" y="-27.88" font-family="Times,serif" font-size="10.00">τ</text>
</g>
<!-- R7 -->
<g id="node9" class="node">
<title>R7</title>
<polygon fill="lightblue" stroke="black" points="272.25,-186.38 218.25,-186.38 218.25,-140.12 272.25,-140.12 272.25,-186.38"/>
<text xml:space="preserve" text-anchor="middle" x="245.25" y="-170.97" font-family="Helvetica,sans-Serif" font-size="12.00">R7</text>
<text xml:space="preserve" text-anchor="middle" x="245.25" y="-158.22" font-family="Helvetica,sans-Serif" font-size="12.00">off</text>
<text xml:space="preserve" text-anchor="middle" x="245.25" y="-145.47" font-family="Helvetica,sans-Serif" font-size="12.00">x=0</text>
</g>
<!-- R7&#45;&gt;R5 -->
<g id="edge7" class="edge">
<title>R7&#45;&gt;R5</title>
<path fill="none" stroke="black" d="M272.74,-163.25C280.85,-163.25 289.87,-163.25 298.46,-163.25"/>
<polygon fill="black" stroke="black" points="298.41,-166.05 306.41,-163.25 298.41,-160.45 298.41,-166.05"/>
<text xml:space="preserve" text-anchor="middle" x="290.25" y="-168" font-family="Times,serif" font-size="10.00">τ</text>
</g>
<!-- R7&#45;&gt;R9 -->
<g id="edge10" class="edge">
<title>R7&#45;&gt;R9</title>
<path fill="none" stroke="black" d="M252.97,-140.03C261.37,-118.46 276.61,-85.9 298.5,-64.25 309.8,-53.07 324.86,-44.23 338.58,-37.73"/>
<polygon fill="black" stroke="black" points="339.37,-40.44 345.51,-34.6 337.07,-35.34 339.37,-40.44"/>
<text xml:space="preserve" text-anchor="middle" x="319.88" y="-66" font-family="Times,serif" font-size="10.00">switch_on</text>
</g>
<!-- R8 -->
<g id="node10" class="node">
<title>R8</title>
<polygon fill="lightblue" stroke="black" points="491.25,-46.25 437.25,-46.25 437.25,0 491.25,0 491.25,-46.25"/>
<text xml:space="preserve" text-anchor="middle" x="464.25" y="-30.85" font-family="Helvetica,sans-Serif" font-size="12.00">R8</text>
<text xml:space="preserve" text-anchor="middle" x="464.25" y="-18.1" font-family="Helvetica,sans-Serif" font-size="12.00">on</text>
<text xml:space="preserve" text-anchor="middle" x="464.25" y="-5.35" font-family="Helvetica,sans-Serif" font-size="12.00">0&lt;x&lt;1</text>
</g>
<!-- R8&#45;&gt;R6 -->
<g id="edge8" class="edge">
<title>R8&#45;&gt;R6</title>
<path fill="none" stroke="black" d="M491.74,-23.12C499.85,-23.12 508.87,-23.12 517.46,-23.12"/>
<polygon fill="black" stroke="black" points="517.41,-25.93 525.41,-23.13 517.41,-20.33 517.41,-25.93"/>
<text xml:space="preserve" text-anchor="middle" x="509.25" y="-27.88" font-family="Times,serif" font-size="10.00">τ</text>
</g>
<!-- R9&#45;&gt;R8 -->
<g id="edge9" class="edge">
<title>R9&#45;&gt;R8</title>
<path fill="none" stroke="black" d="M401.74,-23.12C409.85,-23.12 418.87,-23.12 427.46,-23.12"/>
<polygon fill="black" stroke="black" points="427.41,-25.93 435.41,-23.13 427.41,-20.33 427.41,-25.93"/>
<text xml:space="preserve" text-anchor="middle" x="419.25" y="-27.88" font-family="Times,serif" font-size="10.00">τ</text>
</g>
</g>
</svg>
