<?xml version="1.0" encoding="UTF-8" standalone="no"?>
<!DOCTYPE svg PUBLIC "-//W3C//DTD SVG 1.1//EN"
 "http://www.w3.org/Graphics/SVG/1.1/DTD/svg11.dtd">
<!-- Generated by graphviz version 13.1.2 (20250808.2320)
 -->
<!-- Title: RTS Pages: 1 -->
<svg width="1999pt" height="399pt"
 viewBox="0.00 0.00 1999.00 399.00" xmlns="http://www.w3.org/2000/svg" xmlns:xlink="http://www.w3.org/1999/xlink">
<g id="graph0" class="graph" transform="scale(1 1) rotate(0) translate(4 394.88)">
<title>RTS</title>
<polygon fill="white" stroke="none" points="-4,4 -4,-394.88 1995,-394.88 1995,4 -4,4"/>
<text xml:space="preserve" text-anchor="middle" x="995.5" y="-371.68" font-family="Times,serif" font-size="16.00">RTS generated by BFS function starting from the green region</text>
<text xml:space="preserve" text-anchor="middle" x="995.5" y="-352.93" font-family="Times,serif" font-size="16.00">going forward, manual automaton </text>
<!-- Info -->
<g id="node1" class="node">
<title>Info</title>
<text xml:space="preserve" text-anchor="middle" x="84.12" y="-215.7" font-family="Times,serif" font-size="14.00">Initial region: loc1</text>
<text xml:space="preserve" text-anchor="middle" x="84.12" y="-199.2" font-family="Times,serif" font-size="14.00">FloorValues: x=0 y=0 </text>
<text xml:space="preserve" text-anchor="middle" x="84.12" y="-182.7" font-family="Times,serif" font-size="14.00">Zero fraction clocks: x y </text>
<text xml:space="preserve" text-anchor="middle" x="84.12" y="-166.2" font-family="Times,serif" font-size="14.00">Fractional order:</text>
<text xml:space="preserve" text-anchor="middle" x="84.12" y="-133.7" font-family="Times,serif" font-size="14.00">Transitions:</text>
<text xml:space="preserve" text-anchor="middle" x="84.12" y="-117.2" font-family="Times,serif" font-size="14.00">loc1 &#45;&#45;[a, reset {y}]&#45;&#45;&gt; loc2</text>
<text xml:space="preserve" text-anchor="middle" x="84.12" y="-100.7" font-family="Times,serif" font-size="14.00">loc2 &#45;&#45;[b]&#45;&#45;&gt; loc1</text>
</g>
<!-- R0 -->
<g id="node2" class="node">
<title>R0</title>
<polygon fill="lightgreen" stroke="black" points="240.12,-186.38 186.12,-186.38 186.12,-140.12 240.12,-140.12 240.12,-186.38"/>
<text xml:space="preserve" text-anchor="middle" x="213.12" y="-170.97" font-family="Helvetica,sans-Serif" font-size="12.00">R0</text>
<text xml:space="preserve" text-anchor="middle" x="213.12" y="-158.22" font-family="Helvetica,sans-Serif" font-size="12.00">loc1</text>
<text xml:space="preserve" text-anchor="middle" x="213.12" y="-145.47" font-family="Helvetica,sans-Serif" font-size="12.00">x=y=0</text>
</g>
<!-- R1 -->
<g id="node3" class="node">
<title>R1</title>
<polygon fill="lightblue" stroke="black" points="337,-186.38 275.25,-186.38 275.25,-140.12 337,-140.12 337,-186.38"/>
<text xml:space="preserve" text-anchor="middle" x="306.12" y="-170.97" font-family="Helvetica,sans-Serif" font-size="12.00">R1</text>
<text xml:space="preserve" text-anchor="middle" x="306.12" y="-158.22" font-family="Helvetica,sans-Serif" font-size="12.00">loc1</text>
<text xml:space="preserve" text-anchor="middle" x="306.12" y="-145.47" font-family="Helvetica,sans-Serif" font-size="12.00">0&lt;x~y&lt;1</text>
</g>
<!-- R0&#45;&gt;R1 -->
<g id="edge1" class="edge">
<title>R0&#45;&gt;R1</title>
<path fill="none" stroke="black" d="M240.53,-163.25C248.39,-163.25 257.13,-163.25 265.61,-163.25"/>
<polygon fill="black" stroke="black" points="265.49,-166.05 273.49,-163.25 265.49,-160.45 265.49,-166.05"/>
<text xml:space="preserve" text-anchor="middle" x="257.69" y="-168" font-family="Times,serif" font-size="10.00">τ</text>
</g>
<!-- R2 -->
<g id="node4" class="node">
<title>R2</title>
<polygon fill="lightblue" stroke="black" points="426.12,-186.38 372.12,-186.38 372.12,-140.12 426.12,-140.12 426.12,-186.38"/>
<text xml:space="preserve" text-anchor="middle" x="399.12" y="-170.97" font-family="Helvetica,sans-Serif" font-size="12.00">R2</text>
<text xml:space="preserve" text-anchor="middle" x="399.12" y="-158.22" font-family="Helvetica,sans-Serif" font-size="12.00">loc1</text>
<text xml:space="preserve" text-anchor="middle" x="399.12" y="-145.47" font-family="Helvetica,sans-Serif" font-size="12.00">x=y=1</text>
</g>
<!-- R1&#45;&gt;R2 -->
<g id="edge2" class="edge">
<title>R1&#45;&gt;R2</title>
<path fill="none" stroke="black" d="M337.35,-163.25C345.39,-163.25 354.12,-163.25 362.41,-163.25"/>
<polygon fill="black" stroke="black" points="362.36,-166.05 370.36,-163.25 362.36,-160.45 362.36,-166.05"/>
<text xml:space="preserve" text-anchor="middle" x="354.56" y="-168" font-family="Times,serif" font-size="10.00">τ</text>
</g>
<!-- R3 -->
<g id="node5" class="node">
<title>R3</title>
<polygon fill="lightblue" stroke="black" points="523,-186.38 461.25,-186.38 461.25,-140.12 523,-140.12 523,-186.38"/>
<text xml:space="preserve" text-anchor="middle" x="492.12" y="-170.97" font-family="Helvetica,sans-Serif" font-size="12.00">R3</text>
<text xml:space="preserve" text-anchor="middle" x="492.12" y="-158.22" font-family="Helvetica,sans-Serif" font-size="12.00">loc1</text>
<text xml:space="preserve" text-anchor="middle" x="492.12" y="-145.47" font-family="Helvetica,sans-Serif" font-size="12.00">1&lt;x~y&lt;2</text>
</g>
<!-- R2&#45;&gt;R3 -->
<g id="edge3" class="edge">
<title>R2&#45;&gt;R3</title>
<path fill="none" stroke="black" d="M426.53,-163.25C434.39,-163.25 443.13,-163.25 451.61,-163.25"/>
<polygon fill="black" stroke="black" points="451.49,-166.05 459.49,-163.25 451.49,-160.45 451.49,-166.05"/>
<text xml:space="preserve" text-anchor="middle" x="443.69" y="-168" font-family="Times,serif" font-size="10.00">τ</text>
</g>
<!-- R4 -->
<g id="node6" class="node">
<title>R4</title>
<polygon fill="lightblue" stroke="black" points="612.12,-186.38 558.12,-186.38 558.12,-140.12 612.12,-140.12 612.12,-186.38"/>
<text xml:space="preserve" text-anchor="middle" x="585.12" y="-170.97" font-family="Helvetica,sans-Serif" font-size="12.00">R4</text>
<text xml:space="preserve" text-anchor="middle" x="585.12" y="-158.22" font-family="Helvetica,sans-Serif" font-size="12.00">loc1</text>
<text xml:space="preserve" text-anchor="middle" x="585.12" y="-145.47" font-family="Helvetica,sans-Serif" font-size="12.00">x=y=2</text>
</g>
<!-- R3&#45;&gt;R4 -->
<g id="edge4" class="edge">
<title>R3&#45;&gt;R4</title>
<path fill="none" stroke="black" d="M523.35,-163.25C531.39,-163.25 540.12,-163.25 548.41,-163.25"/>
<polygon fill="black" stroke="black" points="548.36,-166.05 556.36,-163.25 548.36,-160.45 548.36,-166.05"/>
<text xml:space="preserve" text-anchor="middle" x="540.56" y="-168" font-family="Times,serif" font-size="10.00">τ</text>
</g>
<!-- R5 -->
<g id="node7" class="node">
<title>R5</title>
<polygon fill="lightblue" stroke="black" points="874,-46.25 812.25,-46.25 812.25,0 874,0 874,-46.25"/>
<text xml:space="preserve" text-anchor="middle" x="843.12" y="-30.85" font-family="Helvetica,sans-Serif" font-size="12.00">R5</text>
<text xml:space="preserve" text-anchor="middle" x="843.12" y="-18.1" font-family="Helvetica,sans-Serif" font-size="12.00">loc2</text>
<text xml:space="preserve" text-anchor="middle" x="843.12" y="-5.35" font-family="Helvetica,sans-Serif" font-size="12.00">y=0&lt;x=2</text>
</g>
<!-- R4&#45;&gt;R5 -->
<g id="edge5" class="edge">
<title>R4&#45;&gt;R5</title>
<path fill="none" stroke="black" d="M597.54,-139.92C606.92,-124.9 621.08,-105.67 638.12,-93.5 688.54,-57.49 759.07,-39.09 802.88,-30.55"/>
<polygon fill="black" stroke="black" points="803.23,-33.33 810.58,-29.1 802.2,-27.83 803.23,-33.33"/>
<text xml:space="preserve" text-anchor="middle" x="691.75" y="-66" font-family="Times,serif" font-size="10.00">a</text>
</g>
<!-- R6 -->
<g id="node8" class="node">
<title>R6</title>
<polygon fill="lightblue" stroke="black" points="709,-186.38 647.25,-186.38 647.25,-140.12 709,-140.12 709,-186.38"/>
<text xml:space="preserve" text-anchor="middle" x="678.12" y="-170.97" font-family="Helvetica,sans-Serif" font-size="12.00">R6</text>
<text xml:space="preserve" text-anchor="middle" x="678.12" y="-158.22" font-family="Helvetica,sans-Serif" font-size="12.00">loc1</text>
<text xml:space="preserve" text-anchor="middle" x="678.12" y="-145.47" font-family="Helvetica,sans-Serif" font-size="12.00">2&lt;x~y&lt;3</text>
</g>
<!-- R4&#45;&gt;R6 -->
<g id="edge6" class="edge">
<title>R4&#45;&gt;R6</title>
<path fill="none" stroke="black" d="M612.53,-163.25C620.39,-163.25 629.13,-163.25 637.61,-163.25"/>
<polygon fill="black" stroke="black" points="637.49,-166.05 645.49,-163.25 637.49,-160.45 637.49,-166.05"/>
<text xml:space="preserve" text-anchor="middle" x="629.69" y="-168" font-family="Times,serif" font-size="10.00">τ</text>
</g>
<!-- R7 -->
<g id="node9" class="node">
<title>R7</title>
<polygon fill="lightblue" stroke="black" points="1101.5,-46.25 1012.75,-46.25 1012.75,0 1101.5,0 1101.5,-46.25"/>
<text xml:space="preserve" text-anchor="middle" x="1057.12" y="-30.85" font-family="Helvetica,sans-Serif" font-size="12.00">R7</text>
<text xml:space="preserve" text-anchor="middle" x="1057.12" y="-18.1" font-family="Helvetica,sans-Serif" font-size="12.00">loc2</text>
<text xml:space="preserve" text-anchor="middle" x="1057.12" y="-5.35" font-family="Helvetica,sans-Serif" font-size="12.00">0&lt;y&lt;1&lt;2&lt;x&lt;3</text>
</g>
<!-- R5&#45;&gt;R7 -->
<g id="edge7" class="edge">
<title>R5&#45;&gt;R7</title>
<path fill="none" stroke="black" d="M874.24,-23.12C907.94,-23.12 962.33,-23.12 1003.05,-23.12"/>
<polygon fill="black" stroke="black" points="1003.05,-25.93 1011.05,-23.13 1003.05,-20.33 1003.05,-25.93"/>
<text xml:space="preserve" text-anchor="middle" x="943.38" y="-27.88" font-family="Times,serif" font-size="10.00">τ</text>
</g>
<!-- R8 -->
<g id="node10" class="node">
<title>R8</title>
<polygon fill="lightblue" stroke="black" points="798.12,-186.38 744.12,-186.38 744.12,-140.12 798.12,-140.12 798.12,-186.38"/>
<text xml:space="preserve" text-anchor="middle" x="771.12" y="-170.97" font-family="Helvetica,sans-Serif" font-size="12.00">R8</text>
<text xml:space="preserve" text-anchor="middle" x="771.12" y="-158.22" font-family="Helvetica,sans-Serif" font-size="12.00">loc1</text>
<text xml:space="preserve" text-anchor="middle" x="771.12" y="-145.47" font-family="Helvetica,sans-Serif" font-size="12.00">x=y=3</text>
</g>
<!-- R6&#45;&gt;R8 -->
<g id="edge8" class="edge">
<title>R6&#45;&gt;R8</title>
<path fill="none" stroke="black" d="M709.35,-163.25C717.39,-163.25 726.12,-163.25 734.41,-163.25"/>
<polygon fill="black" stroke="black" points="734.36,-166.05 742.36,-163.25 734.36,-160.45 734.36,-166.05"/>
<text xml:space="preserve" text-anchor="middle" x="726.56" y="-168" font-family="Times,serif" font-size="10.00">τ</text>
</g>
<!-- R9 -->
<g id="node11" class="node">
<title>R9</title>
<polygon fill="lightblue" stroke="black" points="1250,-46.25 1188.25,-46.25 1188.25,0 1250,0 1250,-46.25"/>
<text xml:space="preserve" text-anchor="middle" x="1219.12" y="-30.85" font-family="Helvetica,sans-Serif" font-size="12.00">R9</text>
<text xml:space="preserve" text-anchor="middle" x="1219.12" y="-18.1" font-family="Helvetica,sans-Serif" font-size="12.00">loc2</text>
<text xml:space="preserve" text-anchor="middle" x="1219.12" y="-5.35" font-family="Helvetica,sans-Serif" font-size="12.00">y=1&lt;x=3</text>
</g>
<!-- R7&#45;&gt;R9 -->
<g id="edge9" class="edge">
<title>R7&#45;&gt;R9</title>
<path fill="none" stroke="black" d="M1101.82,-23.12C1125.86,-23.12 1155.27,-23.12 1178.63,-23.12"/>
<polygon fill="black" stroke="black" points="1178.4,-25.93 1186.4,-23.13 1178.4,-20.33 1178.4,-25.93"/>
<text xml:space="preserve" text-anchor="middle" x="1144.88" y="-27.88" font-family="Times,serif" font-size="10.00">τ</text>
</g>
<!-- R10 -->
<g id="node12" class="node">
<title>R10</title>
<polygon fill="lightblue" stroke="black" points="895,-186.38 833.25,-186.38 833.25,-140.12 895,-140.12 895,-186.38"/>
<text xml:space="preserve" text-anchor="middle" x="864.12" y="-170.97" font-family="Helvetica,sans-Serif" font-size="12.00">R10</text>
<text xml:space="preserve" text-anchor="middle" x="864.12" y="-158.22" font-family="Helvetica,sans-Serif" font-size="12.00">loc1</text>
<text xml:space="preserve" text-anchor="middle" x="864.12" y="-145.47" font-family="Helvetica,sans-Serif" font-size="12.00">3&lt;x~y&lt;4</text>
</g>
<!-- R8&#45;&gt;R10 -->
<g id="edge10" class="edge">
<title>R8&#45;&gt;R10</title>
<path fill="none" stroke="black" d="M798.53,-163.25C806.39,-163.25 815.13,-163.25 823.61,-163.25"/>
<polygon fill="black" stroke="black" points="823.49,-166.05 831.49,-163.25 823.49,-160.45 823.49,-166.05"/>
<text xml:space="preserve" text-anchor="middle" x="815.69" y="-168" font-family="Times,serif" font-size="10.00">τ</text>
</g>
<!-- R11 -->
<g id="node13" class="node">
<title>R11</title>
<polygon fill="lightblue" stroke="black" points="1250,-186.38 1188.25,-186.38 1188.25,-140.12 1250,-140.12 1250,-186.38"/>
<text xml:space="preserve" text-anchor="middle" x="1219.12" y="-170.97" font-family="Helvetica,sans-Serif" font-size="12.00">R11</text>
<text xml:space="preserve" text-anchor="middle" x="1219.12" y="-158.22" font-family="Helvetica,sans-Serif" font-size="12.00">loc1</text>
<text xml:space="preserve" text-anchor="middle" x="1219.12" y="-145.47" font-family="Helvetica,sans-Serif" font-size="12.00">y=1&lt;x=3</text>
</g>
<!-- R9&#45;&gt;R11 -->
<g id="edge11" class="edge">
<title>R9&#45;&gt;R11</title>
<path fill="none" stroke="black" d="M1219.12,-46.61C1219.12,-69.39 1219.12,-104.81 1219.12,-130.45"/>
<polygon fill="black" stroke="black" points="1216.33,-130.24 1219.13,-138.24 1221.93,-130.24 1216.33,-130.24"/>
<text xml:space="preserve" text-anchor="middle" x="1221.75" y="-66" font-family="Times,serif" font-size="10.00">b</text>
</g>
<!-- R12 -->
<g id="node14" class="node">
<title>R12</title>
<polygon fill="lightblue" stroke="black" points="1374.5,-46.25 1285.75,-46.25 1285.75,0 1374.5,0 1374.5,-46.25"/>
<text xml:space="preserve" text-anchor="middle" x="1330.12" y="-30.85" font-family="Helvetica,sans-Serif" font-size="12.00">R12</text>
<text xml:space="preserve" text-anchor="middle" x="1330.12" y="-18.1" font-family="Helvetica,sans-Serif" font-size="12.00">loc2</text>
<text xml:space="preserve" text-anchor="middle" x="1330.12" y="-5.35" font-family="Helvetica,sans-Serif" font-size="12.00">1&lt;y&lt;2&lt;3&lt;x&lt;4</text>
</g>
<!-- R9&#45;&gt;R12 -->
<g id="edge12" class="edge">
<title>R9&#45;&gt;R12</title>
<path fill="none" stroke="black" d="M1250.34,-23.12C1258.35,-23.12 1267.19,-23.12 1275.99,-23.12"/>
<polygon fill="black" stroke="black" points="1275.96,-25.93 1283.96,-23.13 1275.96,-20.33 1275.96,-25.93"/>
<text xml:space="preserve" text-anchor="middle" x="1267.88" y="-27.88" font-family="Times,serif" font-size="10.00">τ</text>
</g>
<!-- R13 -->
<g id="node15" class="node">
<title>R13</title>
<polygon fill="lightblue" stroke="black" points="984.12,-186.38 930.12,-186.38 930.12,-140.12 984.12,-140.12 984.12,-186.38"/>
<text xml:space="preserve" text-anchor="middle" x="957.12" y="-170.97" font-family="Helvetica,sans-Serif" font-size="12.00">R13</text>
<text xml:space="preserve" text-anchor="middle" x="957.12" y="-158.22" font-family="Helvetica,sans-Serif" font-size="12.00">loc1</text>
<text xml:space="preserve" text-anchor="middle" x="957.12" y="-145.47" font-family="Helvetica,sans-Serif" font-size="12.00">x=y=4</text>
</g>
<!-- R10&#45;&gt;R13 -->
<g id="edge13" class="edge">
<title>R10&#45;&gt;R13</title>
<path fill="none" stroke="black" d="M895.35,-163.25C903.39,-163.25 912.12,-163.25 920.41,-163.25"/>
<polygon fill="black" stroke="black" points="920.36,-166.05 928.36,-163.25 920.36,-160.45 920.36,-166.05"/>
<text xml:space="preserve" text-anchor="middle" x="912.56" y="-168" font-family="Times,serif" font-size="10.00">τ</text>
</g>
<!-- R14 -->
<g id="node16" class="node">
<title>R14</title>
<polygon fill="lightblue" stroke="black" points="1374.5,-186.38 1285.75,-186.38 1285.75,-140.12 1374.5,-140.12 1374.5,-186.38"/>
<text xml:space="preserve" text-anchor="middle" x="1330.12" y="-170.97" font-family="Helvetica,sans-Serif" font-size="12.00">R14</text>
<text xml:space="preserve" text-anchor="middle" x="1330.12" y="-158.22" font-family="Helvetica,sans-Serif" font-size="12.00">loc1</text>
<text xml:space="preserve" text-anchor="middle" x="1330.12" y="-145.47" font-family="Helvetica,sans-Serif" font-size="12.00">1&lt;y&lt;2&lt;3&lt;x&lt;4</text>
</g>
<!-- R11&#45;&gt;R14 -->
<g id="edge14" class="edge">
<title>R11&#45;&gt;R14</title>
<path fill="none" stroke="black" d="M1250.34,-163.25C1258.35,-163.25 1267.19,-163.25 1275.99,-163.25"/>
<polygon fill="black" stroke="black" points="1275.96,-166.05 1283.96,-163.25 1275.96,-160.45 1275.96,-166.05"/>
<text xml:space="preserve" text-anchor="middle" x="1267.88" y="-168" font-family="Times,serif" font-size="10.00">τ</text>
</g>
<!-- R12&#45;&gt;R14 -->
<g id="edge15" class="edge">
<title>R12&#45;&gt;R14</title>
<path fill="none" stroke="black" d="M1330.12,-46.61C1330.12,-69.39 1330.12,-104.81 1330.12,-130.45"/>
<polygon fill="black" stroke="black" points="1327.33,-130.24 1330.13,-138.24 1332.93,-130.24 1327.33,-130.24"/>
<text xml:space="preserve" text-anchor="middle" x="1332.75" y="-66" font-family="Times,serif" font-size="10.00">b</text>
</g>
<!-- R15 -->
<g id="node17" class="node">
<title>R15</title>
<polygon fill="lightblue" stroke="black" points="1472,-46.25 1410.25,-46.25 1410.25,0 1472,0 1472,-46.25"/>
<text xml:space="preserve" text-anchor="middle" x="1441.12" y="-30.85" font-family="Helvetica,sans-Serif" font-size="12.00">R15</text>
<text xml:space="preserve" text-anchor="middle" x="1441.12" y="-18.1" font-family="Helvetica,sans-Serif" font-size="12.00">loc2</text>
<text xml:space="preserve" text-anchor="middle" x="1441.12" y="-5.35" font-family="Helvetica,sans-Serif" font-size="12.00">y=2&lt;x=4</text>
</g>
<!-- R12&#45;&gt;R15 -->
<g id="edge16" class="edge">
<title>R12&#45;&gt;R15</title>
<path fill="none" stroke="black" d="M1374.95,-23.12C1383.34,-23.12 1392.07,-23.12 1400.33,-23.12"/>
<polygon fill="black" stroke="black" points="1400.25,-25.93 1408.25,-23.13 1400.25,-20.33 1400.25,-25.93"/>
<text xml:space="preserve" text-anchor="middle" x="1392.38" y="-27.88" font-family="Times,serif" font-size="10.00">τ</text>
</g>
<!-- R16 -->
<g id="node18" class="node">
<title>R16</title>
<polygon fill="lightblue" stroke="black" points="1081,-186.38 1019.25,-186.38 1019.25,-140.12 1081,-140.12 1081,-186.38"/>
<text xml:space="preserve" text-anchor="middle" x="1050.12" y="-170.97" font-family="Helvetica,sans-Serif" font-size="12.00">R16</text>
<text xml:space="preserve" text-anchor="middle" x="1050.12" y="-158.22" font-family="Helvetica,sans-Serif" font-size="12.00">loc1</text>
<text xml:space="preserve" text-anchor="middle" x="1050.12" y="-145.47" font-family="Helvetica,sans-Serif" font-size="12.00">4&lt;x~y&lt;5</text>
</g>
<!-- R13&#45;&gt;R16 -->
<g id="edge17" class="edge">
<title>R13&#45;&gt;R16</title>
<path fill="none" stroke="black" d="M984.53,-163.25C992.39,-163.25 1001.13,-163.25 1009.61,-163.25"/>
<polygon fill="black" stroke="black" points="1009.49,-166.05 1017.49,-163.25 1009.49,-160.45 1009.49,-166.05"/>
<text xml:space="preserve" text-anchor="middle" x="1001.69" y="-168" font-family="Times,serif" font-size="10.00">τ</text>
</g>
<!-- R17 -->
<g id="node19" class="node">
<title>R17</title>
<polygon fill="lightblue" stroke="black" points="1472,-186.38 1410.25,-186.38 1410.25,-140.12 1472,-140.12 1472,-186.38"/>
<text xml:space="preserve" text-anchor="middle" x="1441.12" y="-170.97" font-family="Helvetica,sans-Serif" font-size="12.00">R17</text>
<text xml:space="preserve" text-anchor="middle" x="1441.12" y="-158.22" font-family="Helvetica,sans-Serif" font-size="12.00">loc1</text>
<text xml:space="preserve" text-anchor="middle" x="1441.12" y="-145.47" font-family="Helvetica,sans-Serif" font-size="12.00">y=2&lt;x=4</text>
</g>
<!-- R14&#45;&gt;R17 -->
<g id="edge18" class="edge">
<title>R14&#45;&gt;R17</title>
<path fill="none" stroke="black" d="M1374.95,-163.25C1383.34,-163.25 1392.07,-163.25 1400.33,-163.25"/>
<polygon fill="black" stroke="black" points="1400.25,-166.05 1408.25,-163.25 1400.25,-160.45 1400.25,-166.05"/>
<text xml:space="preserve" text-anchor="middle" x="1392.38" y="-168" font-family="Times,serif" font-size="10.00">τ</text>
</g>
<!-- R15&#45;&gt;R17 -->
<g id="edge19" class="edge">
<title>R15&#45;&gt;R17</title>
<path fill="none" stroke="black" d="M1441.12,-46.61C1441.12,-69.39 1441.12,-104.81 1441.12,-130.45"/>
<polygon fill="black" stroke="black" points="1438.33,-130.24 1441.13,-138.24 1443.93,-130.24 1438.33,-130.24"/>
<text xml:space="preserve" text-anchor="middle" x="1443.75" y="-66" font-family="Times,serif" font-size="10.00">b</text>
</g>
<!-- R18 -->
<g id="node20" class="node">
<title>R18</title>
<polygon fill="lightblue" stroke="black" points="1681.5,-46.25 1592.75,-46.25 1592.75,0 1681.5,0 1681.5,-46.25"/>
<text xml:space="preserve" text-anchor="middle" x="1637.12" y="-30.85" font-family="Helvetica,sans-Serif" font-size="12.00">R18</text>
<text xml:space="preserve" text-anchor="middle" x="1637.12" y="-18.1" font-family="Helvetica,sans-Serif" font-size="12.00">loc2</text>
<text xml:space="preserve" text-anchor="middle" x="1637.12" y="-5.35" font-family="Helvetica,sans-Serif" font-size="12.00">2&lt;y&lt;3&lt;4&lt;x&lt;5</text>
</g>
<!-- R15&#45;&gt;R18 -->
<g id="edge20" class="edge">
<title>R15&#45;&gt;R18</title>
<path fill="none" stroke="black" d="M1464.46,-46.65C1474.32,-54.99 1486.48,-63.38 1499.25,-67.71 1531.2,-78.55 1567.52,-65.79 1594.86,-51.19"/>
<polygon fill="black" stroke="black" points="1596.1,-53.71 1601.72,-47.36 1593.37,-48.82 1596.1,-53.71"/>
<text xml:space="preserve" text-anchor="middle" x="1501.12" y="-66" font-family="Times,serif" font-size="10.00">τ</text>
</g>
<!-- R19 -->
<g id="node21" class="node">
<title>R19</title>
<polygon fill="lightblue" stroke="black" points="1170.12,-186.38 1116.12,-186.38 1116.12,-140.12 1170.12,-140.12 1170.12,-186.38"/>
<text xml:space="preserve" text-anchor="middle" x="1143.12" y="-170.97" font-family="Helvetica,sans-Serif" font-size="12.00">R19</text>
<text xml:space="preserve" text-anchor="middle" x="1143.12" y="-158.22" font-family="Helvetica,sans-Serif" font-size="12.00">loc1</text>
<text xml:space="preserve" text-anchor="middle" x="1143.12" y="-145.47" font-family="Helvetica,sans-Serif" font-size="12.00">x=y=5</text>
</g>
<!-- R16&#45;&gt;R19 -->
<g id="edge21" class="edge">
<title>R16&#45;&gt;R19</title>
<path fill="none" stroke="black" d="M1081.35,-163.25C1089.39,-163.25 1098.12,-163.25 1106.41,-163.25"/>
<polygon fill="black" stroke="black" points="1106.36,-166.05 1114.36,-163.25 1106.36,-160.45 1106.36,-166.05"/>
<text xml:space="preserve" text-anchor="middle" x="1098.56" y="-168" font-family="Times,serif" font-size="10.00">τ</text>
</g>
<!-- R20 -->
<g id="node22" class="node">
<title>R20</title>
<polygon fill="lightblue" stroke="black" points="1567,-46.25 1505.25,-46.25 1505.25,0 1567,0 1567,-46.25"/>
<text xml:space="preserve" text-anchor="middle" x="1536.12" y="-30.85" font-family="Helvetica,sans-Serif" font-size="12.00">R20</text>
<text xml:space="preserve" text-anchor="middle" x="1536.12" y="-18.1" font-family="Helvetica,sans-Serif" font-size="12.00">loc2</text>
<text xml:space="preserve" text-anchor="middle" x="1536.12" y="-5.35" font-family="Helvetica,sans-Serif" font-size="12.00">y=0&lt;x=4</text>
</g>
<!-- R17&#45;&gt;R20 -->
<g id="edge22" class="edge">
<title>R17&#45;&gt;R20</title>
<path fill="none" stroke="black" d="M1449.56,-139.84C1458.04,-119.02 1472.44,-87.78 1490.62,-64.25 1493.68,-60.29 1497.17,-56.42 1500.83,-52.74"/>
<polygon fill="black" stroke="black" points="1502.58,-54.94 1506.44,-47.39 1498.72,-50.89 1502.58,-54.94"/>
<text xml:space="preserve" text-anchor="middle" x="1492.88" y="-66" font-family="Times,serif" font-size="10.00">a</text>
</g>
<!-- R21 -->
<g id="node23" class="node">
<title>R21</title>
<polygon fill="lightblue" stroke="black" points="1689.5,-186.38 1600.75,-186.38 1600.75,-140.12 1689.5,-140.12 1689.5,-186.38"/>
<text xml:space="preserve" text-anchor="middle" x="1645.12" y="-170.97" font-family="Helvetica,sans-Serif" font-size="12.00">R21</text>
<text xml:space="preserve" text-anchor="middle" x="1645.12" y="-158.22" font-family="Helvetica,sans-Serif" font-size="12.00">loc1</text>
<text xml:space="preserve" text-anchor="middle" x="1645.12" y="-145.47" font-family="Helvetica,sans-Serif" font-size="12.00">2&lt;y&lt;3&lt;4&lt;x&lt;5</text>
</g>
<!-- R17&#45;&gt;R21 -->
<g id="edge23" class="edge">
<title>R17&#45;&gt;R21</title>
<path fill="none" stroke="black" d="M1448.48,-186.83C1454.64,-202.51 1465.05,-222.13 1481.12,-233 1517.61,-257.66 1535.32,-243.64 1579.25,-246.69 1606.8,-248.6 1624.65,-219.77 1634.73,-195.49"/>
<polygon fill="black" stroke="black" points="1637.26,-196.69 1637.54,-188.22 1632.04,-194.67 1637.26,-196.69"/>
<text xml:space="preserve" text-anchor="middle" x="1581.12" y="-252.75" font-family="Times,serif" font-size="10.00">τ</text>
</g>
<!-- R18&#45;&gt;R21 -->
<g id="edge24" class="edge">
<title>R18&#45;&gt;R21</title>
<path fill="none" stroke="black" d="M1638.43,-46.61C1639.75,-69.39 1641.8,-104.81 1643.28,-130.45"/>
<polygon fill="black" stroke="black" points="1640.48,-130.41 1643.73,-138.24 1646.07,-130.09 1640.48,-130.41"/>
<text xml:space="preserve" text-anchor="middle" x="1642.57" y="-66" font-family="Times,serif" font-size="10.00">b</text>
</g>
<!-- R22 -->
<g id="node24" class="node">
<title>R22</title>
<polygon fill="lightblue" stroke="black" points="1783,-46.25 1721.25,-46.25 1721.25,0 1783,0 1783,-46.25"/>
<text xml:space="preserve" text-anchor="middle" x="1752.12" y="-30.85" font-family="Helvetica,sans-Serif" font-size="12.00">R22</text>
<text xml:space="preserve" text-anchor="middle" x="1752.12" y="-18.1" font-family="Helvetica,sans-Serif" font-size="12.00">loc2</text>
<text xml:space="preserve" text-anchor="middle" x="1752.12" y="-5.35" font-family="Helvetica,sans-Serif" font-size="12.00">y=3&lt;x=5</text>
</g>
<!-- R18&#45;&gt;R22 -->
<g id="edge25" class="edge">
<title>R18&#45;&gt;R22</title>
<path fill="none" stroke="black" d="M1681.92,-23.12C1691.66,-23.12 1701.92,-23.12 1711.49,-23.12"/>
<polygon fill="black" stroke="black" points="1711.28,-25.93 1719.28,-23.13 1711.28,-20.33 1711.28,-25.93"/>
<text xml:space="preserve" text-anchor="middle" x="1701.38" y="-27.88" font-family="Times,serif" font-size="10.00">τ</text>
</g>
<!-- R23 -->
<g id="node25" class="node">
<title>R23</title>
<polygon fill="lightblue" stroke="black" points="1552,-186.38 1490.25,-186.38 1490.25,-140.12 1552,-140.12 1552,-186.38"/>
<text xml:space="preserve" text-anchor="middle" x="1521.12" y="-170.97" font-family="Helvetica,sans-Serif" font-size="12.00">R23</text>
<text xml:space="preserve" text-anchor="middle" x="1521.12" y="-158.22" font-family="Helvetica,sans-Serif" font-size="12.00">loc1</text>
<text xml:space="preserve" text-anchor="middle" x="1521.12" y="-145.47" font-family="Helvetica,sans-Serif" font-size="12.00">y=0&lt;x=4</text>
</g>
<!-- R20&#45;&gt;R23 -->
<g id="edge26" class="edge">
<title>R20&#45;&gt;R23</title>
<path fill="none" stroke="black" d="M1533.68,-46.61C1531.21,-69.39 1527.36,-104.81 1524.58,-130.45"/>
<polygon fill="black" stroke="black" points="1521.81,-129.99 1523.73,-138.25 1527.38,-130.59 1521.81,-129.99"/>
<text xml:space="preserve" text-anchor="middle" x="1534.32" y="-66" font-family="Times,serif" font-size="10.00">b</text>
</g>
<!-- R24 -->
<g id="node26" class="node">
<title>R24</title>
<polygon fill="lightblue" stroke="black" points="1891.5,-46.25 1802.75,-46.25 1802.75,0 1891.5,0 1891.5,-46.25"/>
<text xml:space="preserve" text-anchor="middle" x="1847.12" y="-30.85" font-family="Helvetica,sans-Serif" font-size="12.00">R24</text>
<text xml:space="preserve" text-anchor="middle" x="1847.12" y="-18.1" font-family="Helvetica,sans-Serif" font-size="12.00">loc2</text>
<text xml:space="preserve" text-anchor="middle" x="1847.12" y="-5.35" font-family="Helvetica,sans-Serif" font-size="12.00">0&lt;y&lt;1&lt;4&lt;x&lt;5</text>
</g>
<!-- R20&#45;&gt;R24 -->
<g id="edge27" class="edge">
<title>R20&#45;&gt;R24</title>
<path fill="none" stroke="black" d="M1567.26,-39.43C1598.67,-54.08 1648.84,-72.59 1694,-67.71 1738.38,-62.91 1749.57,-59.73 1792.12,-46.25 1792.54,-46.12 1792.97,-45.98 1793.39,-45.85"/>
<polygon fill="black" stroke="black" points="1794.28,-48.5 1800.92,-43.23 1792.45,-43.21 1794.28,-48.5"/>
<text xml:space="preserve" text-anchor="middle" x="1692.12" y="-66" font-family="Times,serif" font-size="10.00">τ</text>
</g>
<!-- R25 -->
<g id="node27" class="node">
<title>R25</title>
<polygon fill="lightblue" stroke="black" points="1787,-186.38 1725.25,-186.38 1725.25,-140.12 1787,-140.12 1787,-186.38"/>
<text xml:space="preserve" text-anchor="middle" x="1756.12" y="-170.97" font-family="Helvetica,sans-Serif" font-size="12.00">R25</text>
<text xml:space="preserve" text-anchor="middle" x="1756.12" y="-158.22" font-family="Helvetica,sans-Serif" font-size="12.00">loc1</text>
<text xml:space="preserve" text-anchor="middle" x="1756.12" y="-145.47" font-family="Helvetica,sans-Serif" font-size="12.00">y=3&lt;x=5</text>
</g>
<!-- R21&#45;&gt;R25 -->
<g id="edge28" class="edge">
<title>R21&#45;&gt;R25</title>
<path fill="none" stroke="black" d="M1689.95,-163.25C1698.34,-163.25 1707.07,-163.25 1715.33,-163.25"/>
<polygon fill="black" stroke="black" points="1715.25,-166.05 1723.25,-163.25 1715.25,-160.45 1715.25,-166.05"/>
<text xml:space="preserve" text-anchor="middle" x="1707.38" y="-168" font-family="Times,serif" font-size="10.00">τ</text>
</g>
<!-- R22&#45;&gt;R25 -->
<g id="edge29" class="edge">
<title>R22&#45;&gt;R25</title>
<path fill="none" stroke="black" d="M1752.78,-46.61C1753.44,-69.39 1754.46,-104.81 1755.2,-130.45"/>
<polygon fill="black" stroke="black" points="1752.4,-130.32 1755.43,-138.24 1758,-130.16 1752.4,-130.32"/>
<text xml:space="preserve" text-anchor="middle" x="1756.16" y="-66" font-family="Times,serif" font-size="10.00">b</text>
</g>
<!-- R26 -->
<g id="node28" class="node">
<title>R26</title>
<polygon fill="lightblue" stroke="black" points="1893.5,-186.38 1804.75,-186.38 1804.75,-140.12 1893.5,-140.12 1893.5,-186.38"/>
<text xml:space="preserve" text-anchor="middle" x="1849.12" y="-170.97" font-family="Helvetica,sans-Serif" font-size="12.00">R26</text>
<text xml:space="preserve" text-anchor="middle" x="1849.12" y="-158.22" font-family="Helvetica,sans-Serif" font-size="12.00">loc1</text>
<text xml:space="preserve" text-anchor="middle" x="1849.12" y="-145.47" font-family="Helvetica,sans-Serif" font-size="12.00">0&lt;y&lt;1&lt;4&lt;x&lt;5</text>
</g>
<!-- R23&#45;&gt;R26 -->
<g id="edge30" class="edge">
<title>R23&#45;&gt;R26</title>
<path fill="none" stroke="black" d="M1527.74,-186.7C1534.74,-206.61 1547.92,-233.92 1570.25,-246.69 1571.7,-247.51 1572.33,-246.74 1574,-246.69 1672.86,-243.64 1708.91,-279.66 1796.12,-233 1811.93,-224.54 1824.42,-209.09 1833.29,-194.87"/>
<polygon fill="black" stroke="black" points="1835.68,-196.33 1837.33,-188.01 1830.86,-193.49 1835.68,-196.33"/>
<text xml:space="preserve" text-anchor="middle" x="1572.12" y="-252.75" font-family="Times,serif" font-size="10.00">τ</text>
</g>
<!-- R24&#45;&gt;R26 -->
<g id="edge31" class="edge">
<title>R24&#45;&gt;R26</title>
<path fill="none" stroke="black" d="M1847.45,-46.61C1847.78,-69.39 1848.29,-104.81 1848.66,-130.45"/>
<polygon fill="black" stroke="black" points="1845.86,-130.28 1848.78,-138.24 1851.46,-130.2 1845.86,-130.28"/>
<text xml:space="preserve" text-anchor="middle" x="1850.45" y="-66" font-family="Times,serif" font-size="10.00">b</text>
</g>
<!-- R27 -->
<g id="node29" class="node">
<title>R27</title>
<polygon fill="lightblue" stroke="black" points="1990,-46.25 1928.25,-46.25 1928.25,0 1990,0 1990,-46.25"/>
<text xml:space="preserve" text-anchor="middle" x="1959.12" y="-30.85" font-family="Helvetica,sans-Serif" font-size="12.00">R27</text>
<text xml:space="preserve" text-anchor="middle" x="1959.12" y="-18.1" font-family="Helvetica,sans-Serif" font-size="12.00">loc2</text>
<text xml:space="preserve" text-anchor="middle" x="1959.12" y="-5.35" font-family="Helvetica,sans-Serif" font-size="12.00">y=1&lt;x=5</text>
</g>
<!-- R24&#45;&gt;R27 -->
<g id="edge32" class="edge">
<title>R24&#45;&gt;R27</title>
<path fill="none" stroke="black" d="M1891.71,-23.12C1900.49,-23.12 1909.65,-23.12 1918.3,-23.12"/>
<polygon fill="black" stroke="black" points="1918.27,-25.93 1926.27,-23.13 1918.27,-20.33 1918.27,-25.93"/>
<text xml:space="preserve" text-anchor="middle" x="1909.88" y="-27.88" font-family="Times,serif" font-size="10.00">τ</text>
</g>
<!-- R28 -->
<g id="node30" class="node">
<title>R28</title>
<polygon fill="lightblue" stroke="black" points="1991,-186.38 1929.25,-186.38 1929.25,-140.12 1991,-140.12 1991,-186.38"/>
<text xml:space="preserve" text-anchor="middle" x="1960.12" y="-170.97" font-family="Helvetica,sans-Serif" font-size="12.00">R28</text>
<text xml:space="preserve" text-anchor="middle" x="1960.12" y="-158.22" font-family="Helvetica,sans-Serif" font-size="12.00">loc1</text>
<text xml:space="preserve" text-anchor="middle" x="1960.12" y="-145.47" font-family="Helvetica,sans-Serif" font-size="12.00">y=1&lt;x=5</text>
</g>
<!-- R26&#45;&gt;R28 -->
<g id="edge33" class="edge">
<title>R26&#45;&gt;R28</title>
<path fill="none" stroke="black" d="M1893.95,-163.25C1902.34,-163.25 1911.07,-163.25 1919.33,-163.25"/>
<polygon fill="black" stroke="black" points="1919.25,-166.05 1927.25,-163.25 1919.25,-160.45 1919.25,-166.05"/>
<text xml:space="preserve" text-anchor="middle" x="1911.38" y="-168" font-family="Times,serif" font-size="10.00">τ</text>
</g>
<!-- R27&#45;&gt;R28 -->
<g id="edge34" class="edge">
<title>R27&#45;&gt;R28</title>
<path fill="none" stroke="black" d="M1959.29,-46.61C1959.45,-69.39 1959.71,-104.81 1959.89,-130.45"/>
<polygon fill="black" stroke="black" points="1957.09,-130.26 1959.95,-138.24 1962.69,-130.22 1957.09,-130.26"/>
<text xml:space="preserve" text-anchor="middle" x="1962.1" y="-66" font-family="Times,serif" font-size="10.00">b</text>
</g>
</g>
</svg>
