<?xml version="1.0" encoding="UTF-8" standalone="no"?>
<!DOCTYPE svg PUBLIC "-//W3C//DTD SVG 1.1//EN"
 "http://www.w3.org/Graphics/SVG/1.1/DTD/svg11.dtd">
<!-- Generated by graphviz version 13.1.2 (20250808.2320)
 -->
<!-- Title: RTS Pages: 1 -->
<svg width="608pt" height="289pt"
 viewBox="0.00 0.00 608.00 289.00" xmlns="http://www.w3.org/2000/svg" xmlns:xlink="http://www.w3.org/1999/xlink">
<g id="graph0" class="graph" transform="scale(1 1) rotate(0) translate(4 285)">
<title>RTS</title>
<polygon fill="white" stroke="none" points="-4,4 -4,-285 604.12,-285 604.12,4 -4,4"/>
<text xml:space="preserve" text-anchor="middle" x="300.06" y="-261.8" font-family="Times,serif" font-size="16.00">RTS generated by BFS function starting from the green region</text>
<text xml:space="preserve" text-anchor="middle" x="300.06" y="-243.05" font-family="Times,serif" font-size="16.00">going Forward exploration</text>
<!-- Info -->
<g id="node1" class="node">
<title>Info</title>
<text xml:space="preserve" text-anchor="middle" x="84.12" y="-199.2" font-family="Times,serif" font-size="14.00">Initial region: loc</text>
<text xml:space="preserve" text-anchor="middle" x="84.12" y="-182.7" font-family="Times,serif" font-size="14.00">FloorValues: x=0 </text>
<text xml:space="preserve" text-anchor="middle" x="84.12" y="-166.2" font-family="Times,serif" font-size="14.00">Zero fraction clocks: x </text>
<text xml:space="preserve" text-anchor="middle" x="84.12" y="-149.7" font-family="Times,serif" font-size="14.00">Fractional order:</text>
<text xml:space="preserve" text-anchor="middle" x="84.12" y="-117.2" font-family="Times,serif" font-size="14.00">Transitions:</text>
<text xml:space="preserve" text-anchor="middle" x="84.12" y="-100.7" font-family="Times,serif" font-size="14.00">loc &#45;&#45;[a1, reset {x}]&#45;&#45;&gt; loc1</text>
</g>
<!-- R0 -->
<g id="node2" class="node">
<title>R0</title>
<polygon fill="lightgreen" stroke="black" points="240.12,-178.12 186.12,-178.12 186.12,-131.88 240.12,-131.88 240.12,-178.12"/>
<text xml:space="preserve" text-anchor="middle" x="213.12" y="-162.72" font-family="Helvetica,sans-Serif" font-size="12.00">R0</text>
<text xml:space="preserve" text-anchor="middle" x="213.12" y="-149.97" font-family="Helvetica,sans-Serif" font-size="12.00">loc</text>
<text xml:space="preserve" text-anchor="middle" x="213.12" y="-137.22" font-family="Helvetica,sans-Serif" font-size="12.00">x=0</text>
</g>
<!-- R1 -->
<g id="node3" class="node">
<title>R1</title>
<polygon fill="lightblue" stroke="black" points="330.12,-178.12 276.12,-178.12 276.12,-131.88 330.12,-131.88 330.12,-178.12"/>
<text xml:space="preserve" text-anchor="middle" x="303.12" y="-162.72" font-family="Helvetica,sans-Serif" font-size="12.00">R1</text>
<text xml:space="preserve" text-anchor="middle" x="303.12" y="-149.97" font-family="Helvetica,sans-Serif" font-size="12.00">loc</text>
<text xml:space="preserve" text-anchor="middle" x="303.12" y="-137.22" font-family="Helvetica,sans-Serif" font-size="12.00">0&lt;x&lt;1</text>
</g>
<!-- R0&#45;&gt;R1 -->
<g id="edge1" class="edge">
<title>R0&#45;&gt;R1</title>
<path fill="none" stroke="black" d="M240.62,-155C248.73,-155 257.74,-155 266.34,-155"/>
<polygon fill="black" stroke="black" points="266.29,-157.8 274.29,-155 266.29,-152.2 266.29,-157.8"/>
<text xml:space="preserve" text-anchor="middle" x="258.12" y="-159.75" font-family="Times,serif" font-size="10.00">τ</text>
</g>
<!-- R2 -->
<g id="node4" class="node">
<title>R2</title>
<polygon fill="lightblue" stroke="black" points="420.12,-178.12 366.12,-178.12 366.12,-131.88 420.12,-131.88 420.12,-178.12"/>
<text xml:space="preserve" text-anchor="middle" x="393.12" y="-162.72" font-family="Helvetica,sans-Serif" font-size="12.00">R2</text>
<text xml:space="preserve" text-anchor="middle" x="393.12" y="-149.97" font-family="Helvetica,sans-Serif" font-size="12.00">loc</text>
<text xml:space="preserve" text-anchor="middle" x="393.12" y="-137.22" font-family="Helvetica,sans-Serif" font-size="12.00">x=1</text>
</g>
<!-- R1&#45;&gt;R2 -->
<g id="edge2" class="edge">
<title>R1&#45;&gt;R2</title>
<path fill="none" stroke="black" d="M330.62,-155C338.73,-155 347.74,-155 356.34,-155"/>
<polygon fill="black" stroke="black" points="356.29,-157.8 364.29,-155 356.29,-152.2 356.29,-157.8"/>
<text xml:space="preserve" text-anchor="middle" x="348.12" y="-159.75" font-family="Times,serif" font-size="10.00">τ</text>
</g>
<!-- R3 -->
<g id="node5" class="node">
<title>R3</title>
<polygon fill="lightblue" stroke="black" points="420.12,-46.25 366.12,-46.25 366.12,0 420.12,0 420.12,-46.25"/>
<text xml:space="preserve" text-anchor="middle" x="393.12" y="-30.85" font-family="Helvetica,sans-Serif" font-size="12.00">R3</text>
<text xml:space="preserve" text-anchor="middle" x="393.12" y="-18.1" font-family="Helvetica,sans-Serif" font-size="12.00">loc1</text>
<text xml:space="preserve" text-anchor="middle" x="393.12" y="-5.35" font-family="Helvetica,sans-Serif" font-size="12.00">x=0</text>
</g>
<!-- R2&#45;&gt;R3 -->
<g id="edge3" class="edge">
<title>R2&#45;&gt;R3</title>
<path fill="none" stroke="black" d="M393.12,-131.38C393.12,-110.52 393.12,-79.35 393.12,-55.97"/>
<polygon fill="black" stroke="black" points="395.93,-56 393.13,-48 390.33,-56 395.93,-56"/>
<text xml:space="preserve" text-anchor="middle" x="398" y="-66" font-family="Times,serif" font-size="10.00">a1</text>
</g>
<!-- R4 -->
<g id="node6" class="node">
<title>R4</title>
<polygon fill="lightblue" stroke="black" points="510.12,-46.25 456.12,-46.25 456.12,0 510.12,0 510.12,-46.25"/>
<text xml:space="preserve" text-anchor="middle" x="483.12" y="-30.85" font-family="Helvetica,sans-Serif" font-size="12.00">R4</text>
<text xml:space="preserve" text-anchor="middle" x="483.12" y="-18.1" font-family="Helvetica,sans-Serif" font-size="12.00">loc1</text>
<text xml:space="preserve" text-anchor="middle" x="483.12" y="-5.35" font-family="Helvetica,sans-Serif" font-size="12.00">0&lt;x&lt;1</text>
</g>
<!-- R3&#45;&gt;R4 -->
<g id="edge4" class="edge">
<title>R3&#45;&gt;R4</title>
<path fill="none" stroke="black" d="M420.62,-23.12C428.73,-23.12 437.74,-23.12 446.34,-23.12"/>
<polygon fill="black" stroke="black" points="446.29,-25.93 454.29,-23.13 446.29,-20.33 446.29,-25.93"/>
<text xml:space="preserve" text-anchor="middle" x="438.12" y="-27.88" font-family="Times,serif" font-size="10.00">τ</text>
</g>
<!-- R5 -->
<g id="node7" class="node">
<title>R5</title>
<polygon fill="lightblue" stroke="black" points="600.12,-46.25 546.12,-46.25 546.12,0 600.12,0 600.12,-46.25"/>
<text xml:space="preserve" text-anchor="middle" x="573.12" y="-30.85" font-family="Helvetica,sans-Serif" font-size="12.00">R5</text>
<text xml:space="preserve" text-anchor="middle" x="573.12" y="-18.1" font-family="Helvetica,sans-Serif" font-size="12.00">loc1</text>
<text xml:space="preserve" text-anchor="middle" x="573.12" y="-5.35" font-family="Helvetica,sans-Serif" font-size="12.00">x=1</text>
</g>
<!-- R4&#45;&gt;R5 -->
<g id="edge5" class="edge">
<title>R4&#45;&gt;R5</title>
<path fill="none" stroke="black" d="M510.62,-23.12C518.73,-23.12 527.74,-23.12 536.34,-23.12"/>
<polygon fill="black" stroke="black" points="536.29,-25.93 544.29,-23.13 536.29,-20.33 536.29,-25.93"/>
<text xml:space="preserve" text-anchor="middle" x="528.12" y="-27.88" font-family="Times,serif" font-size="10.00">τ</text>
</g>
</g>
</svg>
