<?xml version="1.0" encoding="UTF-8" standalone="no"?>
<!DOCTYPE svg PUBLIC "-//W3C//DTD SVG 1.1//EN"
 "http://www.w3.org/Graphics/SVG/1.1/DTD/svg11.dtd">
<!-- Generated by graphviz version 13.1.2 (20250808.2320)
 -->
<!-- Title: RTS Pages: 1 -->
<svg width="640pt" height="306pt"
 viewBox="0.00 0.00 640.00 306.00" xmlns="http://www.w3.org/2000/svg" xmlns:xlink="http://www.w3.org/1999/xlink">
<g id="graph0" class="graph" transform="scale(1 1) rotate(0) translate(4 301.5)">
<title>RTS</title>
<polygon fill="white" stroke="none" points="-4,4 -4,-301.5 636.25,-301.5 636.25,4 -4,4"/>
<text xml:space="preserve" text-anchor="middle" x="316.12" y="-278.3" font-family="Times,serif" font-size="16.00">RTS generated by BFS function starting from the green region</text>
<text xml:space="preserve" text-anchor="middle" x="316.12" y="-259.55" font-family="Times,serif" font-size="16.00">going Backward, example switch on/off</text>
<!-- Info -->
<g id="node1" class="node">
<title>Info</title>
<text xml:space="preserve" text-anchor="middle" x="100.25" y="-215.7" font-family="Times,serif" font-size="14.00">Initial region: off</text>
<text xml:space="preserve" text-anchor="middle" x="100.25" y="-199.2" font-family="Times,serif" font-size="14.00">FloorValues: x=2 </text>
<text xml:space="preserve" text-anchor="middle" x="100.25" y="-182.7" font-family="Times,serif" font-size="14.00">Zero fraction clocks: x </text>
<text xml:space="preserve" text-anchor="middle" x="100.25" y="-166.2" font-family="Times,serif" font-size="14.00">Fractional order:</text>
<text xml:space="preserve" text-anchor="middle" x="100.25" y="-133.7" font-family="Times,serif" font-size="14.00">Transitions:</text>
<text xml:space="preserve" text-anchor="middle" x="100.25" y="-117.2" font-family="Times,serif" font-size="14.00">off &#45;&#45;[switch_on, reset {x}]&#45;&#45;&gt; on</text>
<text xml:space="preserve" text-anchor="middle" x="100.25" y="-100.7" font-family="Times,serif" font-size="14.00">on &#45;&#45;[switch_off]&#45;&#45;&gt; off</text>
</g>
<!-- R0 -->
<g id="node2" class="node">
<title>R0</title>
<polygon fill="lightgreen" stroke="black" points="272.25,-186.38 218.25,-186.38 218.25,-140.12 272.25,-140.12 272.25,-186.38"/>
<text xml:space="preserve" text-anchor="middle" x="245.25" y="-170.97" font-family="Helvetica,sans-Serif" font-size="12.00">R0</text>
<text xml:space="preserve" text-anchor="middle" x="245.25" y="-158.22" font-family="Helvetica,sans-Serif" font-size="12.00">off</text>
<text xml:space="preserve" text-anchor="middle" x="245.25" y="-145.47" font-family="Helvetica,sans-Serif" font-size="12.00">x=2</text>
</g>
<!-- R1 -->
<g id="node3" class="node">
<title>R1</title>
<polygon fill="lightblue" stroke="black" points="362.25,-186.38 308.25,-186.38 308.25,-140.12 362.25,-140.12 362.25,-186.38"/>
<text xml:space="preserve" text-anchor="middle" x="335.25" y="-170.97" font-family="Helvetica,sans-Serif" font-size="12.00">R1</text>
<text xml:space="preserve" text-anchor="middle" x="335.25" y="-158.22" font-family="Helvetica,sans-Serif" font-size="12.00">off</text>
<text xml:space="preserve" text-anchor="middle" x="335.25" y="-145.47" font-family="Helvetica,sans-Serif" font-size="12.00">1&lt;x&lt;2</text>
</g>
<!-- R0&#45;&gt;R1 -->
<g id="edge1" class="edge">
<title>R0&#45;&gt;R1</title>
<path fill="none" stroke="black" d="M272.74,-163.25C280.85,-163.25 289.87,-163.25 298.46,-163.25"/>
<polygon fill="black" stroke="black" points="298.41,-166.05 306.41,-163.25 298.41,-160.45 298.41,-166.05"/>
<text xml:space="preserve" text-anchor="middle" x="290.25" y="-168" font-family="Times,serif" font-size="10.00">τ</text>
</g>
<!-- R9 -->
<g id="node11" class="node">
<title>R9</title>
<polygon fill="lightblue" stroke="black" points="497.25,-46.25 443.25,-46.25 443.25,0 497.25,0 497.25,-46.25"/>
<text xml:space="preserve" text-anchor="middle" x="470.25" y="-30.85" font-family="Helvetica,sans-Serif" font-size="12.00">R9</text>
<text xml:space="preserve" text-anchor="middle" x="470.25" y="-18.1" font-family="Helvetica,sans-Serif" font-size="12.00">on</text>
<text xml:space="preserve" text-anchor="middle" x="470.25" y="-5.35" font-family="Helvetica,sans-Serif" font-size="12.00">x=0</text>
</g>
<!-- R0&#45;&gt;R9 -->
<g id="edge14" class="edge">
<title>R0&#45;&gt;R9</title>
<path fill="none" stroke="black" d="M257.47,-140.04C271.55,-116.84 296.97,-81.46 329.5,-64.25 364.31,-45.84 378.59,-57.76 416.25,-46.25 422.17,-44.44 428.35,-42.23 434.32,-39.92"/>
<polygon fill="black" stroke="black" points="435.07,-42.63 441.45,-37.05 432.98,-37.44 435.07,-42.63"/>
<text xml:space="preserve" text-anchor="middle" x="350.88" y="-66" font-family="Times,serif" font-size="10.00">switch_on</text>
</g>
<!-- R3 -->
<g id="node5" class="node">
<title>R3</title>
<polygon fill="lightblue" stroke="black" points="452.25,-186.38 398.25,-186.38 398.25,-140.12 452.25,-140.12 452.25,-186.38"/>
<text xml:space="preserve" text-anchor="middle" x="425.25" y="-170.97" font-family="Helvetica,sans-Serif" font-size="12.00">R3</text>
<text xml:space="preserve" text-anchor="middle" x="425.25" y="-158.22" font-family="Helvetica,sans-Serif" font-size="12.00">off</text>
<text xml:space="preserve" text-anchor="middle" x="425.25" y="-145.47" font-family="Helvetica,sans-Serif" font-size="12.00">x=1</text>
</g>
<!-- R1&#45;&gt;R3 -->
<g id="edge3" class="edge">
<title>R1&#45;&gt;R3</title>
<path fill="none" stroke="black" d="M362.74,-163.25C370.85,-163.25 379.87,-163.25 388.46,-163.25"/>
<polygon fill="black" stroke="black" points="388.41,-166.05 396.41,-163.25 388.41,-160.45 388.41,-166.05"/>
<text xml:space="preserve" text-anchor="middle" x="380.25" y="-168" font-family="Times,serif" font-size="10.00">τ</text>
</g>
<!-- R1&#45;&gt;R9 -->
<g id="edge13" class="edge">
<title>R1&#45;&gt;R9</title>
<path fill="none" stroke="black" d="M342.29,-139.84C350.09,-118.12 364.54,-85.45 386.5,-64.25 393.99,-57.01 415.26,-46.86 434.48,-38.58"/>
<polygon fill="black" stroke="black" points="435.45,-41.21 441.72,-35.51 433.26,-36.05 435.45,-41.21"/>
<text xml:space="preserve" text-anchor="middle" x="407.88" y="-66" font-family="Times,serif" font-size="10.00">switch_on</text>
</g>
<!-- R2 -->
<g id="node4" class="node">
<title>R2</title>
<polygon fill="lightblue" stroke="black" points="137.25,-46.25 83.25,-46.25 83.25,0 137.25,0 137.25,-46.25"/>
<text xml:space="preserve" text-anchor="middle" x="110.25" y="-30.85" font-family="Helvetica,sans-Serif" font-size="12.00">R2</text>
<text xml:space="preserve" text-anchor="middle" x="110.25" y="-18.1" font-family="Helvetica,sans-Serif" font-size="12.00">on</text>
<text xml:space="preserve" text-anchor="middle" x="110.25" y="-5.35" font-family="Helvetica,sans-Serif" font-size="12.00">x=2</text>
</g>
<!-- R2&#45;&gt;R0 -->
<g id="edge2" class="edge">
<title>R2&#45;&gt;R0</title>
<path fill="none" stroke="black" d="M137.73,-38.54C159.26,-50.89 188.88,-70.33 209.25,-93.5 219.01,-104.6 227.01,-118.81 232.97,-131.43"/>
<polygon fill="black" stroke="black" points="230.31,-132.33 236.15,-138.47 235.41,-130.03 230.31,-132.33"/>
<text xml:space="preserve" text-anchor="middle" x="212.2" y="-66" font-family="Times,serif" font-size="10.00">switch_off</text>
</g>
<!-- R4 -->
<g id="node6" class="node">
<title>R4</title>
<polygon fill="lightblue" stroke="black" points="227.25,-46.25 173.25,-46.25 173.25,0 227.25,0 227.25,-46.25"/>
<text xml:space="preserve" text-anchor="middle" x="200.25" y="-30.85" font-family="Helvetica,sans-Serif" font-size="12.00">R4</text>
<text xml:space="preserve" text-anchor="middle" x="200.25" y="-18.1" font-family="Helvetica,sans-Serif" font-size="12.00">on</text>
<text xml:space="preserve" text-anchor="middle" x="200.25" y="-5.35" font-family="Helvetica,sans-Serif" font-size="12.00">1&lt;x&lt;2</text>
</g>
<!-- R2&#45;&gt;R4 -->
<g id="edge4" class="edge">
<title>R2&#45;&gt;R4</title>
<path fill="none" stroke="black" d="M137.74,-23.12C145.85,-23.12 154.87,-23.12 163.46,-23.12"/>
<polygon fill="black" stroke="black" points="163.41,-25.93 171.41,-23.13 163.41,-20.33 163.41,-25.93"/>
<text xml:space="preserve" text-anchor="middle" x="155.25" y="-27.88" font-family="Times,serif" font-size="10.00">τ</text>
</g>
<!-- R5 -->
<g id="node7" class="node">
<title>R5</title>
<polygon fill="lightblue" stroke="black" points="542.25,-186.38 488.25,-186.38 488.25,-140.12 542.25,-140.12 542.25,-186.38"/>
<text xml:space="preserve" text-anchor="middle" x="515.25" y="-170.97" font-family="Helvetica,sans-Serif" font-size="12.00">R5</text>
<text xml:space="preserve" text-anchor="middle" x="515.25" y="-158.22" font-family="Helvetica,sans-Serif" font-size="12.00">off</text>
<text xml:space="preserve" text-anchor="middle" x="515.25" y="-145.47" font-family="Helvetica,sans-Serif" font-size="12.00">0&lt;x&lt;1</text>
</g>
<!-- R3&#45;&gt;R5 -->
<g id="edge5" class="edge">
<title>R3&#45;&gt;R5</title>
<path fill="none" stroke="black" d="M452.74,-163.25C460.85,-163.25 469.87,-163.25 478.46,-163.25"/>
<polygon fill="black" stroke="black" points="478.41,-166.05 486.41,-163.25 478.41,-160.45 478.41,-166.05"/>
<text xml:space="preserve" text-anchor="middle" x="470.25" y="-168" font-family="Times,serif" font-size="10.00">τ</text>
</g>
<!-- R3&#45;&gt;R9 -->
<g id="edge12" class="edge">
<title>R3&#45;&gt;R9</title>
<path fill="none" stroke="black" d="M424.22,-139.91C424.09,-119.41 426,-88.63 436.5,-64.25 437.96,-60.87 439.8,-57.55 441.86,-54.36"/>
<polygon fill="black" stroke="black" points="444.06,-56.1 446.48,-47.98 439.53,-52.82 444.06,-56.1"/>
<text xml:space="preserve" text-anchor="middle" x="457.88" y="-66" font-family="Times,serif" font-size="10.00">switch_on</text>
</g>
<!-- R6 -->
<g id="node8" class="node">
<title>R6</title>
<polygon fill="lightblue" stroke="black" points="317.25,-46.25 263.25,-46.25 263.25,0 317.25,0 317.25,-46.25"/>
<text xml:space="preserve" text-anchor="middle" x="290.25" y="-30.85" font-family="Helvetica,sans-Serif" font-size="12.00">R6</text>
<text xml:space="preserve" text-anchor="middle" x="290.25" y="-18.1" font-family="Helvetica,sans-Serif" font-size="12.00">on</text>
<text xml:space="preserve" text-anchor="middle" x="290.25" y="-5.35" font-family="Helvetica,sans-Serif" font-size="12.00">x=1</text>
</g>
<!-- R4&#45;&gt;R6 -->
<g id="edge6" class="edge">
<title>R4&#45;&gt;R6</title>
<path fill="none" stroke="black" d="M227.74,-23.12C235.85,-23.12 244.87,-23.12 253.46,-23.12"/>
<polygon fill="black" stroke="black" points="253.41,-25.93 261.41,-23.13 253.41,-20.33 253.41,-25.93"/>
<text xml:space="preserve" text-anchor="middle" x="245.25" y="-27.88" font-family="Times,serif" font-size="10.00">τ</text>
</g>
<!-- R7 -->
<g id="node9" class="node">
<title>R7</title>
<polygon fill="lightblue" stroke="black" points="632.25,-186.38 578.25,-186.38 578.25,-140.12 632.25,-140.12 632.25,-186.38"/>
<text xml:space="preserve" text-anchor="middle" x="605.25" y="-170.97" font-family="Helvetica,sans-Serif" font-size="12.00">R7</text>
<text xml:space="preserve" text-anchor="middle" x="605.25" y="-158.22" font-family="Helvetica,sans-Serif" font-size="12.00">off</text>
<text xml:space="preserve" text-anchor="middle" x="605.25" y="-145.47" font-family="Helvetica,sans-Serif" font-size="12.00">x=0</text>
</g>
<!-- R5&#45;&gt;R7 -->
<g id="edge7" class="edge">
<title>R5&#45;&gt;R7</title>
<path fill="none" stroke="black" d="M542.74,-163.25C550.85,-163.25 559.87,-163.25 568.46,-163.25"/>
<polygon fill="black" stroke="black" points="568.41,-166.05 576.41,-163.25 568.41,-160.45 568.41,-166.05"/>
<text xml:space="preserve" text-anchor="middle" x="560.25" y="-168" font-family="Times,serif" font-size="10.00">τ</text>
</g>
<!-- R5&#45;&gt;R9 -->
<g id="edge11" class="edge">
<title>R5&#45;&gt;R9</title>
<path fill="none" stroke="black" d="M507.92,-139.75C500.47,-116.87 488.86,-81.24 480.5,-55.58"/>
<polygon fill="black" stroke="black" points="483.19,-54.79 478.05,-48.05 477.86,-56.53 483.19,-54.79"/>
<text xml:space="preserve" text-anchor="middle" x="507.46" y="-66" font-family="Times,serif" font-size="10.00">switch_on</text>
</g>
<!-- R8 -->
<g id="node10" class="node">
<title>R8</title>
<polygon fill="lightblue" stroke="black" points="407.25,-46.25 353.25,-46.25 353.25,0 407.25,0 407.25,-46.25"/>
<text xml:space="preserve" text-anchor="middle" x="380.25" y="-30.85" font-family="Helvetica,sans-Serif" font-size="12.00">R8</text>
<text xml:space="preserve" text-anchor="middle" x="380.25" y="-18.1" font-family="Helvetica,sans-Serif" font-size="12.00">on</text>
<text xml:space="preserve" text-anchor="middle" x="380.25" y="-5.35" font-family="Helvetica,sans-Serif" font-size="12.00">0&lt;x&lt;1</text>
</g>
<!-- R6&#45;&gt;R8 -->
<g id="edge8" class="edge">
<title>R6&#45;&gt;R8</title>
<path fill="none" stroke="black" d="M317.74,-23.12C325.85,-23.12 334.87,-23.12 343.46,-23.12"/>
<polygon fill="black" stroke="black" points="343.41,-25.93 351.41,-23.13 343.41,-20.33 343.41,-25.93"/>
<text xml:space="preserve" text-anchor="middle" x="335.25" y="-27.88" font-family="Times,serif" font-size="10.00">τ</text>
</g>
<!-- R7&#45;&gt;R9 -->
<g id="edge10" class="edge">
<title>R7&#45;&gt;R9</title>
<path fill="none" stroke="black" d="M592.13,-139.78C579.05,-118.62 557.45,-86.9 533.25,-64.25 524.96,-56.5 514.98,-49.36 505.43,-43.32"/>
<polygon fill="black" stroke="black" points="507.14,-41.08 498.85,-39.3 504.22,-45.86 507.14,-41.08"/>
<text xml:space="preserve" text-anchor="middle" x="563.95" y="-66" font-family="Times,serif" font-size="10.00">switch_on</text>
</g>
<!-- R8&#45;&gt;R9 -->
<g id="edge9" class="edge">
<title>R8&#45;&gt;R9</title>
<path fill="none" stroke="black" d="M407.74,-23.12C415.85,-23.12 424.87,-23.12 433.46,-23.12"/>
<polygon fill="black" stroke="black" points="433.41,-25.93 441.41,-23.13 433.41,-20.33 433.41,-25.93"/>
<text xml:space="preserve" text-anchor="middle" x="425.25" y="-27.88" font-family="Times,serif" font-size="10.00">τ</text>
</g>
</g>
</svg>
