<?xml version="1.0" encoding="UTF-8" standalone="no"?>
<!DOCTYPE svg PUBLIC "-//W3C//DTD SVG 1.1//EN"
 "http://www.w3.org/Graphics/SVG/1.1/DTD/svg11.dtd">
<!-- Generated by graphviz version 13.1.2 (20250808.2320)
 -->
<!-- Title: RTS Pages: 1 -->
<svg width="640pt" height="322pt"
 viewBox="0.00 0.00 640.00 322.00" xmlns="http://www.w3.org/2000/svg" xmlns:xlink="http://www.w3.org/1999/xlink">
<g id="graph0" class="graph" transform="scale(1 1) rotate(0) translate(4 318)">
<title>RTS</title>
<polygon fill="white" stroke="none" points="-4,4 -4,-318 636.25,-318 636.25,4 -4,4"/>
<text xml:space="preserve" text-anchor="middle" x="316.12" y="-294.8" font-family="Times,serif" font-size="16.00">RTS generated by BFS function starting from the green region</text>
<text xml:space="preserve" text-anchor="middle" x="316.12" y="-276.05" font-family="Times,serif" font-size="16.00">going Forward, example switch on/off</text>
<!-- Info -->
<g id="node1" class="node">
<title>Info</title>
<text xml:space="preserve" text-anchor="middle" x="100.25" y="-232.2" font-family="Times,serif" font-size="14.00">Initial region: off</text>
<text xml:space="preserve" text-anchor="middle" x="100.25" y="-215.7" font-family="Times,serif" font-size="14.00">FloorValues: x=1 </text>
<text xml:space="preserve" text-anchor="middle" x="100.25" y="-199.2" font-family="Times,serif" font-size="14.00">Zero fraction clocks: </text>
<text xml:space="preserve" text-anchor="middle" x="100.25" y="-182.7" font-family="Times,serif" font-size="14.00">Fractional order:</text>
<text xml:space="preserve" text-anchor="middle" x="100.25" y="-166.2" font-family="Times,serif" font-size="14.00"> &#160;[x]</text>
<text xml:space="preserve" text-anchor="middle" x="100.25" y="-133.7" font-family="Times,serif" font-size="14.00">Transitions:</text>
<text xml:space="preserve" text-anchor="middle" x="100.25" y="-117.2" font-family="Times,serif" font-size="14.00">off &#45;&#45;[switch_on, reset {x}]&#45;&#45;&gt; on</text>
<text xml:space="preserve" text-anchor="middle" x="100.25" y="-100.7" font-family="Times,serif" font-size="14.00">on &#45;&#45;[switch_off]&#45;&#45;&gt; off</text>
</g>
<!-- R0 -->
<g id="node2" class="node">
<title>R0</title>
<polygon fill="lightgreen" stroke="black" points="272.25,-194.62 218.25,-194.62 218.25,-148.38 272.25,-148.38 272.25,-194.62"/>
<text xml:space="preserve" text-anchor="middle" x="245.25" y="-179.22" font-family="Helvetica,sans-Serif" font-size="12.00">R0</text>
<text xml:space="preserve" text-anchor="middle" x="245.25" y="-166.47" font-family="Helvetica,sans-Serif" font-size="12.00">off</text>
<text xml:space="preserve" text-anchor="middle" x="245.25" y="-153.72" font-family="Helvetica,sans-Serif" font-size="12.00">1&lt;x&lt;2</text>
</g>
<!-- R1 -->
<g id="node3" class="node">
<title>R1</title>
<polygon fill="lightblue" stroke="black" points="272.25,-46.25 218.25,-46.25 218.25,0 272.25,0 272.25,-46.25"/>
<text xml:space="preserve" text-anchor="middle" x="245.25" y="-30.85" font-family="Helvetica,sans-Serif" font-size="12.00">R1</text>
<text xml:space="preserve" text-anchor="middle" x="245.25" y="-18.1" font-family="Helvetica,sans-Serif" font-size="12.00">on</text>
<text xml:space="preserve" text-anchor="middle" x="245.25" y="-5.35" font-family="Helvetica,sans-Serif" font-size="12.00">x=0</text>
</g>
<!-- R0&#45;&gt;R1 -->
<g id="edge1" class="edge">
<title>R0&#45;&gt;R1</title>
<path fill="none" stroke="black" d="M245.25,-147.95C245.25,-123.27 245.25,-83.53 245.25,-55.75"/>
<polygon fill="black" stroke="black" points="248.05,-55.97 245.25,-47.97 242.45,-55.97 248.05,-55.97"/>
<text xml:space="preserve" text-anchor="middle" x="266.62" y="-66" font-family="Times,serif" font-size="10.00">switch_on</text>
</g>
<!-- R2 -->
<g id="node4" class="node">
<title>R2</title>
<polygon fill="lightblue" stroke="black" points="362.25,-194.62 308.25,-194.62 308.25,-148.38 362.25,-148.38 362.25,-194.62"/>
<text xml:space="preserve" text-anchor="middle" x="335.25" y="-179.22" font-family="Helvetica,sans-Serif" font-size="12.00">R2</text>
<text xml:space="preserve" text-anchor="middle" x="335.25" y="-166.47" font-family="Helvetica,sans-Serif" font-size="12.00">off</text>
<text xml:space="preserve" text-anchor="middle" x="335.25" y="-153.72" font-family="Helvetica,sans-Serif" font-size="12.00">x=2</text>
</g>
<!-- R0&#45;&gt;R2 -->
<g id="edge2" class="edge">
<title>R0&#45;&gt;R2</title>
<path fill="none" stroke="black" d="M272.74,-171.5C280.85,-171.5 289.87,-171.5 298.46,-171.5"/>
<polygon fill="black" stroke="black" points="298.41,-174.3 306.41,-171.5 298.41,-168.7 298.41,-174.3"/>
<text xml:space="preserve" text-anchor="middle" x="290.25" y="-176.25" font-family="Times,serif" font-size="10.00">τ</text>
</g>
<!-- R3 -->
<g id="node5" class="node">
<title>R3</title>
<polygon fill="lightblue" stroke="black" points="362.25,-46.25 308.25,-46.25 308.25,0 362.25,0 362.25,-46.25"/>
<text xml:space="preserve" text-anchor="middle" x="335.25" y="-30.85" font-family="Helvetica,sans-Serif" font-size="12.00">R3</text>
<text xml:space="preserve" text-anchor="middle" x="335.25" y="-18.1" font-family="Helvetica,sans-Serif" font-size="12.00">on</text>
<text xml:space="preserve" text-anchor="middle" x="335.25" y="-5.35" font-family="Helvetica,sans-Serif" font-size="12.00">0&lt;x&lt;1</text>
</g>
<!-- R1&#45;&gt;R3 -->
<g id="edge3" class="edge">
<title>R1&#45;&gt;R3</title>
<path fill="none" stroke="black" d="M272.74,-23.12C280.85,-23.12 289.87,-23.12 298.46,-23.12"/>
<polygon fill="black" stroke="black" points="298.41,-25.93 306.41,-23.13 298.41,-20.33 298.41,-25.93"/>
<text xml:space="preserve" text-anchor="middle" x="290.25" y="-27.88" font-family="Times,serif" font-size="10.00">τ</text>
</g>
<!-- R2&#45;&gt;R1 -->
<g id="edge4" class="edge">
<title>R2&#45;&gt;R1</title>
<path fill="none" stroke="black" d="M329.62,-148.2C323.16,-125.57 310.98,-90.24 292.25,-64.25 288.54,-59.1 284.04,-54.19 279.31,-49.69"/>
<polygon fill="black" stroke="black" points="281.23,-47.65 273.4,-44.4 277.5,-51.82 281.23,-47.65"/>
<text xml:space="preserve" text-anchor="middle" x="320.46" y="-66" font-family="Times,serif" font-size="10.00">switch_on</text>
</g>
<!-- R4 -->
<g id="node6" class="node">
<title>R4</title>
<polygon fill="lightblue" stroke="black" points="452.25,-46.25 398.25,-46.25 398.25,0 452.25,0 452.25,-46.25"/>
<text xml:space="preserve" text-anchor="middle" x="425.25" y="-30.85" font-family="Helvetica,sans-Serif" font-size="12.00">R4</text>
<text xml:space="preserve" text-anchor="middle" x="425.25" y="-18.1" font-family="Helvetica,sans-Serif" font-size="12.00">on</text>
<text xml:space="preserve" text-anchor="middle" x="425.25" y="-5.35" font-family="Helvetica,sans-Serif" font-size="12.00">x=1</text>
</g>
<!-- R3&#45;&gt;R4 -->
<g id="edge5" class="edge">
<title>R3&#45;&gt;R4</title>
<path fill="none" stroke="black" d="M362.74,-23.12C370.85,-23.12 379.87,-23.12 388.46,-23.12"/>
<polygon fill="black" stroke="black" points="388.41,-25.93 396.41,-23.13 388.41,-20.33 388.41,-25.93"/>
<text xml:space="preserve" text-anchor="middle" x="380.25" y="-27.88" font-family="Times,serif" font-size="10.00">τ</text>
</g>
<!-- R5 -->
<g id="node7" class="node">
<title>R5</title>
<polygon fill="lightblue" stroke="black" points="542.25,-46.25 488.25,-46.25 488.25,0 542.25,0 542.25,-46.25"/>
<text xml:space="preserve" text-anchor="middle" x="515.25" y="-30.85" font-family="Helvetica,sans-Serif" font-size="12.00">R5</text>
<text xml:space="preserve" text-anchor="middle" x="515.25" y="-18.1" font-family="Helvetica,sans-Serif" font-size="12.00">on</text>
<text xml:space="preserve" text-anchor="middle" x="515.25" y="-5.35" font-family="Helvetica,sans-Serif" font-size="12.00">1&lt;x&lt;2</text>
</g>
<!-- R4&#45;&gt;R5 -->
<g id="edge6" class="edge">
<title>R4&#45;&gt;R5</title>
<path fill="none" stroke="black" d="M452.74,-23.12C460.85,-23.12 469.87,-23.12 478.46,-23.12"/>
<polygon fill="black" stroke="black" points="478.41,-25.93 486.41,-23.13 478.41,-20.33 478.41,-25.93"/>
<text xml:space="preserve" text-anchor="middle" x="470.25" y="-27.88" font-family="Times,serif" font-size="10.00">τ</text>
</g>
<!-- R6 -->
<g id="node8" class="node">
<title>R6</title>
<polygon fill="lightblue" stroke="black" points="632.25,-46.25 578.25,-46.25 578.25,0 632.25,0 632.25,-46.25"/>
<text xml:space="preserve" text-anchor="middle" x="605.25" y="-30.85" font-family="Helvetica,sans-Serif" font-size="12.00">R6</text>
<text xml:space="preserve" text-anchor="middle" x="605.25" y="-18.1" font-family="Helvetica,sans-Serif" font-size="12.00">on</text>
<text xml:space="preserve" text-anchor="middle" x="605.25" y="-5.35" font-family="Helvetica,sans-Serif" font-size="12.00">x=2</text>
</g>
<!-- R5&#45;&gt;R6 -->
<g id="edge7" class="edge">
<title>R5&#45;&gt;R6</title>
<path fill="none" stroke="black" d="M542.74,-23.12C550.85,-23.12 559.87,-23.12 568.46,-23.12"/>
<polygon fill="black" stroke="black" points="568.41,-25.93 576.41,-23.13 568.41,-20.33 568.41,-25.93"/>
<text xml:space="preserve" text-anchor="middle" x="560.25" y="-27.88" font-family="Times,serif" font-size="10.00">τ</text>
</g>
<!-- R6&#45;&gt;R2 -->
<g id="edge8" class="edge">
<title>R6&#45;&gt;R2</title>
<path fill="none" stroke="black" d="M577.8,-39.01C528.63,-65.66 425.56,-121.54 370.96,-151.14"/>
<polygon fill="black" stroke="black" points="369.65,-148.66 363.96,-154.94 372.32,-153.59 369.65,-148.66"/>
<text xml:space="preserve" text-anchor="middle" x="547.22" y="-66" font-family="Times,serif" font-size="10.00">switch_off</text>
</g>
</g>
</svg>
