<?xml version="1.0" encoding="UTF-8" standalone="no"?>
<!DOCTYPE svg PUBLIC "-//W3C//DTD SVG 1.1//EN"
 "http://www.w3.org/Graphics/SVG/1.1/DTD/svg11.dtd">
<!-- Generated by graphviz version 13.1.2 (20250808.2320)
 -->
<!-- Title: RTS Pages: 1 -->
<svg width="550pt" height="229pt"
 viewBox="0.00 0.00 550.00 229.00" xmlns="http://www.w3.org/2000/svg" xmlns:xlink="http://www.w3.org/1999/xlink">
<g id="graph0" class="graph" transform="scale(1 1) rotate(0) translate(4 224.5)">
<title>RTS</title>
<polygon fill="white" stroke="none" points="-4,4 -4,-224.5 546.25,-224.5 546.25,4 -4,4"/>
<text xml:space="preserve" text-anchor="middle" x="271.12" y="-201.3" font-family="Times,serif" font-size="16.00">RTS generated by BFS function starting from the green region</text>
<text xml:space="preserve" text-anchor="middle" x="271.12" y="-182.55" font-family="Times,serif" font-size="16.00">going Backward, example switch on/off</text>
<!-- Info -->
<g id="node1" class="node">
<title>Info</title>
<text xml:space="preserve" text-anchor="middle" x="100.25" y="-138.7" font-family="Times,serif" font-size="14.00">Initial region: off</text>
<text xml:space="preserve" text-anchor="middle" x="100.25" y="-122.2" font-family="Times,serif" font-size="14.00">FloorValues: x=1 </text>
<text xml:space="preserve" text-anchor="middle" x="100.25" y="-105.7" font-family="Times,serif" font-size="14.00">Zero fraction clocks: </text>
<text xml:space="preserve" text-anchor="middle" x="100.25" y="-89.2" font-family="Times,serif" font-size="14.00">Fractional order:</text>
<text xml:space="preserve" text-anchor="middle" x="100.25" y="-72.7" font-family="Times,serif" font-size="14.00"> &#160;[x]</text>
<text xml:space="preserve" text-anchor="middle" x="100.25" y="-40.2" font-family="Times,serif" font-size="14.00">Transitions:</text>
<text xml:space="preserve" text-anchor="middle" x="100.25" y="-23.7" font-family="Times,serif" font-size="14.00">off &#45;&#45;[switch_on, reset {x}]&#45;&#45;&gt; on</text>
<text xml:space="preserve" text-anchor="middle" x="100.25" y="-7.2" font-family="Times,serif" font-size="14.00">on &#45;&#45;[switch_off]&#45;&#45;&gt; off</text>
</g>
<!-- R0 -->
<g id="node2" class="node">
<title>R0</title>
<polygon fill="lightgreen" stroke="black" points="542.25,-101.12 488.25,-101.12 488.25,-54.88 542.25,-54.88 542.25,-101.12"/>
<text xml:space="preserve" text-anchor="middle" x="515.25" y="-85.72" font-family="Helvetica,sans-Serif" font-size="12.00">R0</text>
<text xml:space="preserve" text-anchor="middle" x="515.25" y="-72.97" font-family="Helvetica,sans-Serif" font-size="12.00">off</text>
<text xml:space="preserve" text-anchor="middle" x="515.25" y="-60.23" font-family="Helvetica,sans-Serif" font-size="12.00">1&lt;x&lt;2</text>
</g>
<!-- R1 -->
<g id="node3" class="node">
<title>R1</title>
<polygon fill="lightblue" stroke="black" points="452.25,-101.12 398.25,-101.12 398.25,-54.88 452.25,-54.88 452.25,-101.12"/>
<text xml:space="preserve" text-anchor="middle" x="425.25" y="-85.72" font-family="Helvetica,sans-Serif" font-size="12.00">R1</text>
<text xml:space="preserve" text-anchor="middle" x="425.25" y="-72.97" font-family="Helvetica,sans-Serif" font-size="12.00">off</text>
<text xml:space="preserve" text-anchor="middle" x="425.25" y="-60.23" font-family="Helvetica,sans-Serif" font-size="12.00">x=1</text>
</g>
<!-- R1&#45;&gt;R0 -->
<g id="edge1" class="edge">
<title>R1&#45;&gt;R0</title>
<path fill="none" stroke="black" d="M452.74,-78C460.85,-78 469.87,-78 478.46,-78"/>
<polygon fill="black" stroke="black" points="478.41,-80.8 486.41,-78 478.41,-75.2 478.41,-80.8"/>
<text xml:space="preserve" text-anchor="middle" x="470.25" y="-82.75" font-family="Times,serif" font-size="10.00">τ</text>
</g>
<!-- R2 -->
<g id="node4" class="node">
<title>R2</title>
<polygon fill="lightblue" stroke="black" points="362.25,-101.12 308.25,-101.12 308.25,-54.88 362.25,-54.88 362.25,-101.12"/>
<text xml:space="preserve" text-anchor="middle" x="335.25" y="-85.72" font-family="Helvetica,sans-Serif" font-size="12.00">R2</text>
<text xml:space="preserve" text-anchor="middle" x="335.25" y="-72.97" font-family="Helvetica,sans-Serif" font-size="12.00">off</text>
<text xml:space="preserve" text-anchor="middle" x="335.25" y="-60.23" font-family="Helvetica,sans-Serif" font-size="12.00">0&lt;x&lt;1</text>
</g>
<!-- R2&#45;&gt;R1 -->
<g id="edge2" class="edge">
<title>R2&#45;&gt;R1</title>
<path fill="none" stroke="black" d="M362.74,-78C370.85,-78 379.87,-78 388.46,-78"/>
<polygon fill="black" stroke="black" points="388.41,-80.8 396.41,-78 388.41,-75.2 388.41,-80.8"/>
<text xml:space="preserve" text-anchor="middle" x="380.25" y="-82.75" font-family="Times,serif" font-size="10.00">τ</text>
</g>
<!-- R3 -->
<g id="node5" class="node">
<title>R3</title>
<polygon fill="lightblue" stroke="black" points="272.25,-101.12 218.25,-101.12 218.25,-54.88 272.25,-54.88 272.25,-101.12"/>
<text xml:space="preserve" text-anchor="middle" x="245.25" y="-85.72" font-family="Helvetica,sans-Serif" font-size="12.00">R3</text>
<text xml:space="preserve" text-anchor="middle" x="245.25" y="-72.97" font-family="Helvetica,sans-Serif" font-size="12.00">off</text>
<text xml:space="preserve" text-anchor="middle" x="245.25" y="-60.23" font-family="Helvetica,sans-Serif" font-size="12.00">x=0</text>
</g>
<!-- R3&#45;&gt;R2 -->
<g id="edge3" class="edge">
<title>R3&#45;&gt;R2</title>
<path fill="none" stroke="black" d="M272.74,-78C280.85,-78 289.87,-78 298.46,-78"/>
<polygon fill="black" stroke="black" points="298.41,-80.8 306.41,-78 298.41,-75.2 298.41,-80.8"/>
<text xml:space="preserve" text-anchor="middle" x="290.25" y="-82.75" font-family="Times,serif" font-size="10.00">τ</text>
</g>
</g>
</svg>
