<?xml version="1.0" encoding="UTF-8" standalone="no"?>
<!DOCTYPE svg PUBLIC "-//W3C//DTD SVG 1.1//EN"
 "http://www.w3.org/Graphics/SVG/1.1/DTD/svg11.dtd">
<!-- Generated by graphviz version 13.1.2 (20250808.2320)
 -->
<!-- Title: RTS Pages: 1 -->
<svg width="505pt" height="306pt"
 viewBox="0.00 0.00 505.00 306.00" xmlns="http://www.w3.org/2000/svg" xmlns:xlink="http://www.w3.org/1999/xlink">
<g id="graph0" class="graph" transform="scale(1 1) rotate(0) translate(4 301.5)">
<title>RTS</title>
<polygon fill="white" stroke="none" points="-4,4 -4,-301.5 501.25,-301.5 501.25,4 -4,4"/>
<text xml:space="preserve" text-anchor="middle" x="248.62" y="-278.3" font-family="Times,serif" font-size="16.00">RTS generated by BFS function starting from the green region</text>
<text xml:space="preserve" text-anchor="middle" x="248.62" y="-259.55" font-family="Times,serif" font-size="16.00">going algorithm1, example switch on/off</text>
<!-- Info -->
<g id="node1" class="node">
<title>Info</title>
<text xml:space="preserve" text-anchor="middle" x="100.25" y="-215.7" font-family="Times,serif" font-size="14.00">Initial region: off</text>
<text xml:space="preserve" text-anchor="middle" x="100.25" y="-199.2" font-family="Times,serif" font-size="14.00">FloorValues: x=0 </text>
<text xml:space="preserve" text-anchor="middle" x="100.25" y="-182.7" font-family="Times,serif" font-size="14.00">Zero fraction clocks: x </text>
<text xml:space="preserve" text-anchor="middle" x="100.25" y="-166.2" font-family="Times,serif" font-size="14.00">Fractional order:</text>
<text xml:space="preserve" text-anchor="middle" x="100.25" y="-133.7" font-family="Times,serif" font-size="14.00">Transitions:</text>
<text xml:space="preserve" text-anchor="middle" x="100.25" y="-117.2" font-family="Times,serif" font-size="14.00">off &#45;&#45;[switch_on, reset {x}]&#45;&#45;&gt; on</text>
<text xml:space="preserve" text-anchor="middle" x="100.25" y="-100.7" font-family="Times,serif" font-size="14.00">on &#45;&#45;[switch_off]&#45;&#45;&gt; off</text>
</g>
<!-- R0 -->
<g id="node2" class="node">
<title>R0</title>
<polygon fill="lightblue" stroke="black" points="497.25,-46.25 443.25,-46.25 443.25,0 497.25,0 497.25,-46.25"/>
<text xml:space="preserve" text-anchor="middle" x="470.25" y="-30.85" font-family="Helvetica,sans-Serif" font-size="12.00">R0</text>
<text xml:space="preserve" text-anchor="middle" x="470.25" y="-18.1" font-family="Helvetica,sans-Serif" font-size="12.00">on</text>
<text xml:space="preserve" text-anchor="middle" x="470.25" y="-5.35" font-family="Helvetica,sans-Serif" font-size="12.00">x=1</text>
</g>
<!-- R1 -->
<g id="node3" class="node">
<title>R1</title>
<polygon fill="lightgreen" stroke="black" points="272.25,-186.38 218.25,-186.38 218.25,-140.12 272.25,-140.12 272.25,-186.38"/>
<text xml:space="preserve" text-anchor="middle" x="245.25" y="-170.97" font-family="Helvetica,sans-Serif" font-size="12.00">R1</text>
<text xml:space="preserve" text-anchor="middle" x="245.25" y="-158.22" font-family="Helvetica,sans-Serif" font-size="12.00">off</text>
<text xml:space="preserve" text-anchor="middle" x="245.25" y="-145.47" font-family="Helvetica,sans-Serif" font-size="12.00">x=0</text>
</g>
<!-- R2 -->
<g id="node4" class="node">
<title>R2</title>
<polygon fill="lightblue" stroke="black" points="362.25,-186.38 308.25,-186.38 308.25,-140.12 362.25,-140.12 362.25,-186.38"/>
<text xml:space="preserve" text-anchor="middle" x="335.25" y="-170.97" font-family="Helvetica,sans-Serif" font-size="12.00">R2</text>
<text xml:space="preserve" text-anchor="middle" x="335.25" y="-158.22" font-family="Helvetica,sans-Serif" font-size="12.00">off</text>
<text xml:space="preserve" text-anchor="middle" x="335.25" y="-145.47" font-family="Helvetica,sans-Serif" font-size="12.00">0&lt;x&lt;1</text>
</g>
<!-- R1&#45;&gt;R2 -->
<g id="edge1" class="edge">
<title>R1&#45;&gt;R2</title>
<path fill="none" stroke="black" d="M272.74,-163.25C280.85,-163.25 289.87,-163.25 298.46,-163.25"/>
<polygon fill="black" stroke="black" points="298.41,-166.05 306.41,-163.25 298.41,-160.45 298.41,-166.05"/>
<text xml:space="preserve" text-anchor="middle" x="290.25" y="-168" font-family="Times,serif" font-size="10.00">τ</text>
</g>
<!-- R3 -->
<g id="node5" class="node">
<title>R3</title>
<polygon fill="lightblue" stroke="black" points="317.25,-46.25 263.25,-46.25 263.25,0 317.25,0 317.25,-46.25"/>
<text xml:space="preserve" text-anchor="middle" x="290.25" y="-30.85" font-family="Helvetica,sans-Serif" font-size="12.00">R3</text>
<text xml:space="preserve" text-anchor="middle" x="290.25" y="-18.1" font-family="Helvetica,sans-Serif" font-size="12.00">on</text>
<text xml:space="preserve" text-anchor="middle" x="290.25" y="-5.35" font-family="Helvetica,sans-Serif" font-size="12.00">x=0</text>
</g>
<!-- R1&#45;&gt;R3 -->
<g id="edge2" class="edge">
<title>R1&#45;&gt;R3</title>
<path fill="none" stroke="black" d="M247.24,-139.77C249.6,-119.46 254.54,-89.02 264.5,-64.25 265.78,-61.07 267.32,-57.86 269,-54.73"/>
<polygon fill="black" stroke="black" points="271.34,-56.29 272.95,-47.96 266.5,-53.47 271.34,-56.29"/>
<text xml:space="preserve" text-anchor="middle" x="285.88" y="-66" font-family="Times,serif" font-size="10.00">switch_on</text>
</g>
<!-- R2&#45;&gt;R3 -->
<g id="edge3" class="edge">
<title>R2&#45;&gt;R3</title>
<path fill="none" stroke="black" d="M329.68,-139.82C324.51,-119.8 316.27,-89.78 307.25,-64.25 306.18,-61.23 305.01,-58.12 303.78,-55.02"/>
<polygon fill="black" stroke="black" points="306.46,-54.18 300.84,-47.83 301.28,-56.3 306.46,-54.18"/>
<text xml:space="preserve" text-anchor="middle" x="332.2" y="-66" font-family="Times,serif" font-size="10.00">switch_on</text>
</g>
<!-- R4 -->
<g id="node6" class="node">
<title>R4</title>
<polygon fill="lightblue" stroke="black" points="407.25,-46.25 353.25,-46.25 353.25,0 407.25,0 407.25,-46.25"/>
<text xml:space="preserve" text-anchor="middle" x="380.25" y="-30.85" font-family="Helvetica,sans-Serif" font-size="12.00">R4</text>
<text xml:space="preserve" text-anchor="middle" x="380.25" y="-18.1" font-family="Helvetica,sans-Serif" font-size="12.00">on</text>
<text xml:space="preserve" text-anchor="middle" x="380.25" y="-5.35" font-family="Helvetica,sans-Serif" font-size="12.00">0&lt;x&lt;1</text>
</g>
<!-- R3&#45;&gt;R4 -->
<g id="edge4" class="edge">
<title>R3&#45;&gt;R4</title>
<path fill="none" stroke="black" d="M317.74,-23.12C325.85,-23.12 334.87,-23.12 343.46,-23.12"/>
<polygon fill="black" stroke="black" points="343.41,-25.93 351.41,-23.13 343.41,-20.33 343.41,-25.93"/>
<text xml:space="preserve" text-anchor="middle" x="335.25" y="-27.88" font-family="Times,serif" font-size="10.00">τ</text>
</g>
<!-- R4&#45;&gt;R0 -->
<g id="edge5" class="edge">
<title>R4&#45;&gt;R0</title>
<path fill="none" stroke="black" d="M407.74,-23.12C415.85,-23.12 424.87,-23.12 433.46,-23.12"/>
<polygon fill="black" stroke="black" points="433.41,-25.93 441.41,-23.13 433.41,-20.33 433.41,-25.93"/>
<text xml:space="preserve" text-anchor="middle" x="425.25" y="-27.88" font-family="Times,serif" font-size="10.00">τ</text>
</g>
</g>
</svg>
