<?xml version="1.0" encoding="UTF-8" standalone="no"?>
<!DOCTYPE svg PUBLIC "-//W3C//DTD SVG 1.1//EN"
 "http://www.w3.org/Graphics/SVG/1.1/DTD/svg11.dtd">
<!-- Generated by graphviz version 13.1.2 (20250808.2320)
 -->
<!-- Title: RTS Pages: 1 -->
<svg width="763pt" height="322pt"
 viewBox="0.00 0.00 763.00 322.00" xmlns="http://www.w3.org/2000/svg" xmlns:xlink="http://www.w3.org/1999/xlink">
<g id="graph0" class="graph" transform="scale(1 1) rotate(0) translate(4 318)">
<title>RTS</title>
<polygon fill="white" stroke="none" points="-4,4 -4,-318 759.25,-318 759.25,4 -4,4"/>
<text xml:space="preserve" text-anchor="middle" x="377.62" y="-294.8" font-family="Times,serif" font-size="16.00">RTS generated by BFS function starting from the green region</text>
<text xml:space="preserve" text-anchor="middle" x="377.62" y="-276.05" font-family="Times,serif" font-size="16.00">going Both Forward and Backward, example switch on/off</text>
<!-- Info -->
<g id="node1" class="node">
<title>Info</title>
<text xml:space="preserve" text-anchor="middle" x="100.25" y="-232.2" font-family="Times,serif" font-size="14.00">Initial region: off</text>
<text xml:space="preserve" text-anchor="middle" x="100.25" y="-215.7" font-family="Times,serif" font-size="14.00">FloorValues: x=1 </text>
<text xml:space="preserve" text-anchor="middle" x="100.25" y="-199.2" font-family="Times,serif" font-size="14.00">Zero fraction clocks: </text>
<text xml:space="preserve" text-anchor="middle" x="100.25" y="-182.7" font-family="Times,serif" font-size="14.00">Fractional order:</text>
<text xml:space="preserve" text-anchor="middle" x="100.25" y="-166.2" font-family="Times,serif" font-size="14.00"> &#160;[x]</text>
<text xml:space="preserve" text-anchor="middle" x="100.25" y="-133.7" font-family="Times,serif" font-size="14.00">Transitions:</text>
<text xml:space="preserve" text-anchor="middle" x="100.25" y="-117.2" font-family="Times,serif" font-size="14.00">off &#45;&#45;[switch_on, reset {x}]&#45;&#45;&gt; on</text>
<text xml:space="preserve" text-anchor="middle" x="100.25" y="-100.7" font-family="Times,serif" font-size="14.00">on &#45;&#45;[switch_off]&#45;&#45;&gt; off</text>
</g>
<!-- R0 -->
<g id="node2" class="node">
<title>R0</title>
<polygon fill="lightgreen" stroke="black" points="542.25,-194.62 488.25,-194.62 488.25,-148.38 542.25,-148.38 542.25,-194.62"/>
<text xml:space="preserve" text-anchor="middle" x="515.25" y="-179.22" font-family="Helvetica,sans-Serif" font-size="12.00">R0</text>
<text xml:space="preserve" text-anchor="middle" x="515.25" y="-166.47" font-family="Helvetica,sans-Serif" font-size="12.00">off</text>
<text xml:space="preserve" text-anchor="middle" x="515.25" y="-153.72" font-family="Helvetica,sans-Serif" font-size="12.00">1&lt;x&lt;2</text>
</g>
<!-- R1 -->
<g id="node3" class="node">
<title>R1</title>
<polygon fill="lightblue" stroke="black" points="395.25,-46.25 341.25,-46.25 341.25,0 395.25,0 395.25,-46.25"/>
<text xml:space="preserve" text-anchor="middle" x="368.25" y="-30.85" font-family="Helvetica,sans-Serif" font-size="12.00">R1</text>
<text xml:space="preserve" text-anchor="middle" x="368.25" y="-18.1" font-family="Helvetica,sans-Serif" font-size="12.00">on</text>
<text xml:space="preserve" text-anchor="middle" x="368.25" y="-5.35" font-family="Helvetica,sans-Serif" font-size="12.00">x=0</text>
</g>
<!-- R0&#45;&gt;R1 -->
<g id="edge1" class="edge">
<title>R0&#45;&gt;R1</title>
<path fill="none" stroke="black" d="M504.08,-148.28C491.55,-125.06 469.36,-88.65 442.25,-64.25 431.02,-54.14 416.8,-45.66 403.83,-39.13"/>
<polygon fill="black" stroke="black" points="405.31,-36.74 396.89,-35.79 402.88,-41.78 405.31,-36.74"/>
<text xml:space="preserve" text-anchor="middle" x="473.6" y="-66" font-family="Times,serif" font-size="10.00">switch_on</text>
</g>
<!-- R2 -->
<g id="node4" class="node">
<title>R2</title>
<polygon fill="lightblue" stroke="black" points="632.25,-194.62 578.25,-194.62 578.25,-148.38 632.25,-148.38 632.25,-194.62"/>
<text xml:space="preserve" text-anchor="middle" x="605.25" y="-179.22" font-family="Helvetica,sans-Serif" font-size="12.00">R2</text>
<text xml:space="preserve" text-anchor="middle" x="605.25" y="-166.47" font-family="Helvetica,sans-Serif" font-size="12.00">off</text>
<text xml:space="preserve" text-anchor="middle" x="605.25" y="-153.72" font-family="Helvetica,sans-Serif" font-size="12.00">x=2</text>
</g>
<!-- R0&#45;&gt;R2 -->
<g id="edge2" class="edge">
<title>R0&#45;&gt;R2</title>
<path fill="none" stroke="black" d="M542.74,-171.5C550.85,-171.5 559.87,-171.5 568.46,-171.5"/>
<polygon fill="black" stroke="black" points="568.41,-174.3 576.41,-171.5 568.41,-168.7 568.41,-174.3"/>
<text xml:space="preserve" text-anchor="middle" x="560.25" y="-176.25" font-family="Times,serif" font-size="10.00">τ</text>
</g>
<!-- R4 -->
<g id="node6" class="node">
<title>R4</title>
<polygon fill="lightblue" stroke="black" points="485.25,-46.25 431.25,-46.25 431.25,0 485.25,0 485.25,-46.25"/>
<text xml:space="preserve" text-anchor="middle" x="458.25" y="-30.85" font-family="Helvetica,sans-Serif" font-size="12.00">R4</text>
<text xml:space="preserve" text-anchor="middle" x="458.25" y="-18.1" font-family="Helvetica,sans-Serif" font-size="12.00">on</text>
<text xml:space="preserve" text-anchor="middle" x="458.25" y="-5.35" font-family="Helvetica,sans-Serif" font-size="12.00">0&lt;x&lt;1</text>
</g>
<!-- R1&#45;&gt;R4 -->
<g id="edge3" class="edge">
<title>R1&#45;&gt;R4</title>
<path fill="none" stroke="black" d="M395.74,-23.12C403.85,-23.12 412.87,-23.12 421.46,-23.12"/>
<polygon fill="black" stroke="black" points="421.41,-25.93 429.41,-23.13 421.41,-20.33 421.41,-25.93"/>
<text xml:space="preserve" text-anchor="middle" x="413.25" y="-27.88" font-family="Times,serif" font-size="10.00">τ</text>
</g>
<!-- R2&#45;&gt;R1 -->
<g id="edge4" class="edge">
<title>R2&#45;&gt;R1</title>
<path fill="none" stroke="black" d="M593.09,-147.9C583.38,-131.36 568.56,-109.17 551.25,-93.5 505.99,-52.52 480.41,-64.83 422.25,-46.25 416.35,-44.36 410.19,-42.12 404.22,-39.79"/>
<polygon fill="black" stroke="black" points="405.56,-37.31 397.09,-36.92 403.47,-42.5 405.56,-37.31"/>
<text xml:space="preserve" text-anchor="middle" x="547.41" y="-66" font-family="Times,serif" font-size="10.00">switch_on</text>
</g>
<!-- R3 -->
<g id="node5" class="node">
<title>R3</title>
<polygon fill="lightblue" stroke="black" points="452.25,-194.62 398.25,-194.62 398.25,-148.38 452.25,-148.38 452.25,-194.62"/>
<text xml:space="preserve" text-anchor="middle" x="425.25" y="-179.22" font-family="Helvetica,sans-Serif" font-size="12.00">R3</text>
<text xml:space="preserve" text-anchor="middle" x="425.25" y="-166.47" font-family="Helvetica,sans-Serif" font-size="12.00">off</text>
<text xml:space="preserve" text-anchor="middle" x="425.25" y="-153.72" font-family="Helvetica,sans-Serif" font-size="12.00">x=1</text>
</g>
<!-- R3&#45;&gt;R0 -->
<g id="edge6" class="edge">
<title>R3&#45;&gt;R0</title>
<path fill="none" stroke="black" d="M452.74,-171.5C460.85,-171.5 469.87,-171.5 478.46,-171.5"/>
<polygon fill="black" stroke="black" points="478.41,-174.3 486.41,-171.5 478.41,-168.7 478.41,-174.3"/>
<text xml:space="preserve" text-anchor="middle" x="470.25" y="-176.25" font-family="Times,serif" font-size="10.00">τ</text>
</g>
<!-- R3&#45;&gt;R1 -->
<g id="edge5" class="edge">
<title>R3&#45;&gt;R1</title>
<path fill="none" stroke="black" d="M419.54,-148.02C413.65,-126.16 403.59,-92.25 391.25,-64.25 389.87,-61.13 388.32,-57.94 386.69,-54.78"/>
<polygon fill="black" stroke="black" points="389.25,-53.63 382.97,-47.94 384.33,-56.3 389.25,-53.63"/>
<text xml:space="preserve" text-anchor="middle" x="417.3" y="-66" font-family="Times,serif" font-size="10.00">switch_on</text>
</g>
<!-- R8 -->
<g id="node10" class="node">
<title>R8</title>
<polygon fill="lightblue" stroke="black" points="575.25,-46.25 521.25,-46.25 521.25,0 575.25,0 575.25,-46.25"/>
<text xml:space="preserve" text-anchor="middle" x="548.25" y="-30.85" font-family="Helvetica,sans-Serif" font-size="12.00">R8</text>
<text xml:space="preserve" text-anchor="middle" x="548.25" y="-18.1" font-family="Helvetica,sans-Serif" font-size="12.00">on</text>
<text xml:space="preserve" text-anchor="middle" x="548.25" y="-5.35" font-family="Helvetica,sans-Serif" font-size="12.00">x=1</text>
</g>
<!-- R4&#45;&gt;R8 -->
<g id="edge7" class="edge">
<title>R4&#45;&gt;R8</title>
<path fill="none" stroke="black" d="M485.74,-23.12C493.85,-23.12 502.87,-23.12 511.46,-23.12"/>
<polygon fill="black" stroke="black" points="511.41,-25.93 519.41,-23.13 511.41,-20.33 511.41,-25.93"/>
<text xml:space="preserve" text-anchor="middle" x="503.25" y="-27.88" font-family="Times,serif" font-size="10.00">τ</text>
</g>
<!-- R5 -->
<g id="node7" class="node">
<title>R5</title>
<polygon fill="lightblue" stroke="black" points="272.25,-194.62 218.25,-194.62 218.25,-148.38 272.25,-148.38 272.25,-194.62"/>
<text xml:space="preserve" text-anchor="middle" x="245.25" y="-179.22" font-family="Helvetica,sans-Serif" font-size="12.00">R5</text>
<text xml:space="preserve" text-anchor="middle" x="245.25" y="-166.47" font-family="Helvetica,sans-Serif" font-size="12.00">off</text>
<text xml:space="preserve" text-anchor="middle" x="245.25" y="-153.72" font-family="Helvetica,sans-Serif" font-size="12.00">x=0</text>
</g>
<!-- R5&#45;&gt;R1 -->
<g id="edge8" class="edge">
<title>R5&#45;&gt;R1</title>
<path fill="none" stroke="black" d="M252.09,-148.3C260.14,-125.09 275.41,-88.7 298.5,-64.25 307.99,-54.2 320.57,-45.92 332.43,-39.55"/>
<polygon fill="black" stroke="black" points="333.68,-42.05 339.54,-35.93 331.14,-37.06 333.68,-42.05"/>
<text xml:space="preserve" text-anchor="middle" x="319.88" y="-66" font-family="Times,serif" font-size="10.00">switch_on</text>
</g>
<!-- R6 -->
<g id="node8" class="node">
<title>R6</title>
<polygon fill="lightblue" stroke="black" points="362.25,-194.62 308.25,-194.62 308.25,-148.38 362.25,-148.38 362.25,-194.62"/>
<text xml:space="preserve" text-anchor="middle" x="335.25" y="-179.22" font-family="Helvetica,sans-Serif" font-size="12.00">R6</text>
<text xml:space="preserve" text-anchor="middle" x="335.25" y="-166.47" font-family="Helvetica,sans-Serif" font-size="12.00">off</text>
<text xml:space="preserve" text-anchor="middle" x="335.25" y="-153.72" font-family="Helvetica,sans-Serif" font-size="12.00">0&lt;x&lt;1</text>
</g>
<!-- R5&#45;&gt;R6 -->
<g id="edge9" class="edge">
<title>R5&#45;&gt;R6</title>
<path fill="none" stroke="black" d="M272.74,-171.5C280.85,-171.5 289.87,-171.5 298.46,-171.5"/>
<polygon fill="black" stroke="black" points="298.41,-174.3 306.41,-171.5 298.41,-168.7 298.41,-174.3"/>
<text xml:space="preserve" text-anchor="middle" x="290.25" y="-176.25" font-family="Times,serif" font-size="10.00">τ</text>
</g>
<!-- R6&#45;&gt;R1 -->
<g id="edge10" class="edge">
<title>R6&#45;&gt;R1</title>
<path fill="none" stroke="black" d="M335.89,-148.08C337.01,-126.27 340.08,-92.39 348.5,-64.25 349.42,-61.18 350.55,-58.06 351.81,-54.98"/>
<polygon fill="black" stroke="black" points="354.27,-56.33 354.99,-47.89 349.16,-54.05 354.27,-56.33"/>
<text xml:space="preserve" text-anchor="middle" x="369.88" y="-66" font-family="Times,serif" font-size="10.00">switch_on</text>
</g>
<!-- R6&#45;&gt;R3 -->
<g id="edge11" class="edge">
<title>R6&#45;&gt;R3</title>
<path fill="none" stroke="black" d="M362.74,-171.5C370.85,-171.5 379.87,-171.5 388.46,-171.5"/>
<polygon fill="black" stroke="black" points="388.41,-174.3 396.41,-171.5 388.41,-168.7 388.41,-174.3"/>
<text xml:space="preserve" text-anchor="middle" x="380.25" y="-176.25" font-family="Times,serif" font-size="10.00">τ</text>
</g>
<!-- R7 -->
<g id="node9" class="node">
<title>R7</title>
<polygon fill="lightblue" stroke="black" points="755.25,-46.25 701.25,-46.25 701.25,0 755.25,0 755.25,-46.25"/>
<text xml:space="preserve" text-anchor="middle" x="728.25" y="-30.85" font-family="Helvetica,sans-Serif" font-size="12.00">R7</text>
<text xml:space="preserve" text-anchor="middle" x="728.25" y="-18.1" font-family="Helvetica,sans-Serif" font-size="12.00">on</text>
<text xml:space="preserve" text-anchor="middle" x="728.25" y="-5.35" font-family="Helvetica,sans-Serif" font-size="12.00">x=2</text>
</g>
<!-- R7&#45;&gt;R2 -->
<g id="edge12" class="edge">
<title>R7&#45;&gt;R2</title>
<path fill="none" stroke="black" d="M709.48,-46.46C688.28,-71.69 653.67,-112.88 630.21,-140.8"/>
<polygon fill="black" stroke="black" points="628.18,-138.86 625.17,-146.79 632.46,-142.47 628.18,-138.86"/>
<text xml:space="preserve" text-anchor="middle" x="713.65" y="-66" font-family="Times,serif" font-size="10.00">switch_off</text>
</g>
<!-- R9 -->
<g id="node11" class="node">
<title>R9</title>
<polygon fill="lightblue" stroke="black" points="665.25,-46.25 611.25,-46.25 611.25,0 665.25,0 665.25,-46.25"/>
<text xml:space="preserve" text-anchor="middle" x="638.25" y="-30.85" font-family="Helvetica,sans-Serif" font-size="12.00">R9</text>
<text xml:space="preserve" text-anchor="middle" x="638.25" y="-18.1" font-family="Helvetica,sans-Serif" font-size="12.00">on</text>
<text xml:space="preserve" text-anchor="middle" x="638.25" y="-5.35" font-family="Helvetica,sans-Serif" font-size="12.00">1&lt;x&lt;2</text>
</g>
<!-- R8&#45;&gt;R9 -->
<g id="edge13" class="edge">
<title>R8&#45;&gt;R9</title>
<path fill="none" stroke="black" d="M575.74,-23.12C583.85,-23.12 592.87,-23.12 601.46,-23.12"/>
<polygon fill="black" stroke="black" points="601.41,-25.93 609.41,-23.13 601.41,-20.33 601.41,-25.93"/>
<text xml:space="preserve" text-anchor="middle" x="593.25" y="-27.88" font-family="Times,serif" font-size="10.00">τ</text>
</g>
<!-- R9&#45;&gt;R7 -->
<g id="edge14" class="edge">
<title>R9&#45;&gt;R7</title>
<path fill="none" stroke="black" d="M665.74,-23.12C673.85,-23.12 682.87,-23.12 691.46,-23.12"/>
<polygon fill="black" stroke="black" points="691.41,-25.93 699.41,-23.13 691.41,-20.33 691.41,-25.93"/>
<text xml:space="preserve" text-anchor="middle" x="683.25" y="-27.88" font-family="Times,serif" font-size="10.00">τ</text>
</g>
</g>
</svg>
